<svg width="109" height="110" viewBox="0 0 109 110" fill="none" xmlns="http://www.w3.org/2000/svg">
<g filter="url(#filter0_d_11_287)">
<path d="M38.5895 50.0563C38.4866 49.9534 38.349 49.8813 38.2034 49.8813H35.1114C32.5622 49.8813 30.1622 49.2574 28.0502 48.1378C27.3333 47.7578 26.4052 48.2467 26.4052 49.0582V58.6313C26.4052 65.7843 32.2457 71.625 39.4208 71.625H69.7395C76.9146 71.625 82.7552 65.7843 82.7552 58.6313V49.0582C82.7552 48.2467 81.827 47.7578 81.1101 48.1378C78.9981 49.2574 76.5981 49.8813 74.049 49.8813H70.9569C70.8113 49.8813 70.6737 49.9534 70.5708 50.0563C70.5568 50.0702 70.5489 50.0894 70.5488 50.1091C70.5322 55.247 66.3773 59.402 61.2395 59.4187C61.2197 59.4188 61.2005 59.4266 61.1865 59.4406C59.3708 61.2563 56.9646 62.175 54.5802 62.175C52.1957 62.175 49.7895 61.2563 47.9739 59.4406C47.9598 59.4266 47.9407 59.4188 47.9208 59.4187C42.7831 59.402 38.6282 55.247 38.6115 50.1091C38.6114 50.0894 38.6036 50.0702 38.5895 50.0563Z" fill="url(#paint0_linear_11_287)"/>
<path d="M84.9207 23.7187C84.9207 22.5156 83.9363 21.5312 82.7332 21.5312H68.5951C68.0428 21.5312 67.5951 21.0835 67.5951 20.5312V12.5625C67.5951 11.3534 66.6156 10.375 65.4076 10.375H43.7526C42.5446 10.375 41.5651 11.3534 41.5651 12.5625V20.5312C41.5651 21.0835 41.1174 21.5312 40.5651 21.5312H26.427C25.2239 21.5312 24.2395 22.5156 24.2395 23.7187V34.6343C24.2395 40.628 29.1176 45.5062 35.1113 45.5062C35.6147 45.5062 35.9858 45.0369 35.9246 44.5372C35.5893 41.7974 36.4776 38.936 38.5895 36.8437C38.6035 36.8297 38.6114 36.8105 38.6114 36.7907C38.6282 31.6529 42.783 27.498 47.9208 27.4813C47.9406 27.4813 47.9598 27.4734 47.9738 27.4594C51.627 23.8063 57.5551 23.8063 61.1864 27.4594C61.2004 27.4734 61.2196 27.4813 61.2394 27.4813C66.3772 27.498 70.5321 31.6529 70.5488 36.7907C70.5489 36.8105 70.5567 36.8297 70.5707 36.8437C72.6826 38.936 73.5709 41.7974 73.2356 44.5372C73.1745 45.0369 73.5455 45.5062 74.0489 45.5062C80.0426 45.5062 84.9207 40.628 84.9207 34.6343V23.7187ZM63.2201 20.5312C63.2201 21.0835 62.7724 21.5312 62.2201 21.5312H46.9401C46.3878 21.5312 45.9401 21.0835 45.9401 20.5312V15.75C45.9401 15.1977 46.3878 14.75 46.9401 14.75H62.2201C62.7724 14.75 63.2201 15.1977 63.2201 15.75V20.5312Z" fill="url(#paint1_linear_11_287)"/>
<path d="M61.2084 31.8563H59.6333C59.4801 31.8563 59.327 31.7906 59.2177 31.6813L58.102 30.5437C56.1551 28.6187 53.0052 28.6187 51.0583 30.5437L49.9427 31.6594C49.8333 31.7906 49.6802 31.8563 49.527 31.8563H47.952C45.1958 31.8563 42.9864 34.0656 42.9864 36.8218V38.3969C42.9864 38.5501 42.9208 38.7032 42.8114 38.8125L41.6739 39.9282C39.7488 41.875 39.7488 45.025 41.6739 46.95L42.8114 48.0875C42.9208 48.1969 42.9864 48.35 42.9864 48.5032V50.0781C42.9864 52.8344 45.1958 55.0438 47.952 55.0438H49.527C49.6802 55.0438 49.8333 55.1094 49.9427 55.2188L51.0583 56.3562C51.9989 57.2751 53.2458 57.8 54.5802 57.8C55.9145 57.8 57.1614 57.2751 58.102 56.3562L59.2177 55.2188C59.327 55.1094 59.4801 55.0438 59.6333 55.0438H61.2084C63.9645 55.0438 66.1739 52.8344 66.1739 50.0781V48.5032C66.1739 48.35 66.2396 48.1969 66.3489 48.0875L67.4865 46.95C69.4115 45.025 69.4115 41.875 67.4865 39.9282L66.3489 38.8125C66.2396 38.7032 66.1739 38.5501 66.1739 38.3969V36.8218C66.1739 34.0656 63.9645 31.8563 61.2084 31.8563ZM54.624 45.6375C53.4207 45.6375 52.4365 44.6531 52.4365 43.45C52.4365 42.2469 53.399 41.2625 54.6021 41.2625H54.624C55.8271 41.2625 56.8115 42.2469 56.8115 43.45C56.8115 44.6531 55.8271 45.6375 54.624 45.6375Z" fill="url(#paint2_linear_11_287)"/>
</g>
<defs>
<filter id="filter0_d_11_287" x="0.239502" y="0.375" width="108.681" height="109.25" filterUnits="userSpaceOnUse" color-interpolation-filters="sRGB">
<feFlood flood-opacity="0" result="BackgroundImageFix"/>
<feColorMatrix in="SourceAlpha" type="matrix" values="0 0 0 0 0 0 0 0 0 0 0 0 0 0 0 0 0 0 127 0" result="hardAlpha"/>
<feOffset dy="14"/>
<feGaussianBlur stdDeviation="12"/>
<feComposite in2="hardAlpha" operator="out"/>
<feColorMatrix type="matrix" values="0 0 0 0 0.513726 0 0 0 0 0.67451 0 0 0 0 0.847059 0 0 0 0.36 0"/>
<feBlend mode="normal" in2="BackgroundImageFix" result="effect1_dropShadow_11_287"/>
<feBlend mode="normal" in="SourceGraphic" in2="effect1_dropShadow_11_287" result="shape"/>
</filter>
<linearGradient id="paint0_linear_11_287" x1="-38.0674" y1="-43.0604" x2="123.344" y2="-15.0442" gradientUnits="userSpaceOnUse">
<stop stop-color="#0B4E8C"/>
<stop offset="1" stop-color="#83ACD8"/>
</linearGradient>
<linearGradient id="paint1_linear_11_287" x1="-45.1886" y1="-118.944" x2="130.874" y2="-95.9945" gradientUnits="userSpaceOnUse">
<stop stop-color="#0B4E8C"/>
<stop offset="1" stop-color="#83ACD8"/>
</linearGradient>
<linearGradient id="paint2_linear_11_287" x1="7.39302" y1="-76.5458" x2="91.5999" y2="-70.1911" gradientUnits="userSpaceOnUse">
<stop stop-color="#0B4E8C"/>
<stop offset="1" stop-color="#83ACD8"/>
</linearGradient>
</defs>
</svg>
