<svg width="186" height="75" viewBox="0 0 186 75" fill="none" xmlns="http://www.w3.org/2000/svg">
<path d="M25.3961 60.3325L12.9961 42.289V60.3325H2.82178V26.7095H13.3141L24.9987 43.6402V26.7095H35.1731V60.3325H25.3961Z" fill="#094F8C"/>
<path d="M57.1911 26.1929C67.5642 26.1929 75.5924 33.2672 75.5924 43.6006C75.5924 53.9339 67.5642 61.0083 57.1911 61.0083C46.818 61.0083 38.7898 53.9339 38.7898 43.6006C38.8295 33.2275 46.818 26.1929 57.1911 26.1929ZM57.1911 35.1352C52.3026 35.1352 49.1231 38.8711 49.1231 43.5608C49.1231 48.2506 52.3026 51.9865 57.1911 51.9865C62.0795 51.9865 65.259 48.2506 65.259 43.5608C65.259 38.8711 62.0795 35.1352 57.1911 35.1352Z" fill="#094F8C"/>
<path d="M79.2488 60.3325V26.7095H99.677C106.632 26.7095 109.653 31.3595 109.653 35.2941C109.653 39.4672 107.189 42.289 103.89 43.0043C107.506 43.5608 110.289 46.8992 110.289 51.2313C110.289 55.921 107.109 60.3723 100.353 60.3723H79.2488V60.3325ZM89.4231 39.2287H97.2924C98.3654 39.2287 99.3193 38.2749 99.3193 37.0428C99.3193 35.8902 98.3654 34.9761 97.2924 34.9761H89.4231V39.2287ZM89.4231 52.0659H97.5706C99.0411 52.0659 99.9552 51.0723 99.9552 49.8005C99.9552 48.6082 99.0411 47.4954 97.5706 47.4954H89.4231V52.0659Z" fill="#094F8C"/>
<path d="M114.342 60.3325V26.7095H124.517V51.4697H137.274V60.3325H114.342Z" fill="#094F8C"/>
<path d="M141.368 60.3325V26.7095H166.883V35.1749H151.542V39.1095H166.526V47.5749H151.542V51.8672H166.883V60.3325H141.368Z" fill="#094F8C"/>
<path d="M29.5295 0.041626L27.4628 8.26855H22.8525L24.9987 0.041626H12.2807L14.4269 8.26855H9.81663L7.74997 0.041626H1.39099L6.00125 16.7339H31.3974L35.7295 0.399319V0.041626H29.5295Z" fill="#93BCE4"/>
<path d="M6.47815 20.7083H30.7217" stroke="#93BCE4" stroke-width="4.21227" stroke-miterlimit="10" stroke-linecap="round"/>
<path d="M51.2294 66.2545C50.9114 65.8571 50.5537 65.5789 50.0768 65.3404C49.5999 65.1019 49.123 65.0225 48.646 65.0225C48.0499 65.0225 47.4935 65.1417 47.0166 65.3801C46.5396 65.6186 46.1025 65.8968 45.7845 66.2943C45.4268 66.6917 45.1884 67.1289 44.9896 67.6853C44.7909 68.2019 44.7114 68.7584 44.7114 69.3943C44.7114 69.9507 44.7909 70.4673 44.9896 70.984C45.1884 71.5007 45.4268 71.9378 45.7845 72.2955C46.1422 72.693 46.5396 72.9712 47.0166 73.2096C47.4935 73.4481 48.0499 73.5276 48.6858 73.5276C49.2819 73.5276 49.8384 73.4084 50.2755 73.1699C50.7525 72.9314 51.1102 72.5737 51.4281 72.1366L52.6601 73.0507C52.5807 73.1699 52.4217 73.3289 52.223 73.5276C52.0243 73.7263 51.746 73.925 51.4281 74.1635C51.1102 74.4019 50.7127 74.5609 50.2358 74.7199C49.7589 74.8789 49.2422 74.9584 48.6063 74.9584C47.7717 74.9584 47.0166 74.7994 46.3409 74.4814C45.6653 74.1635 45.0691 73.7263 44.6319 73.2096C44.155 72.693 43.7973 72.0968 43.5589 71.4609C43.3204 70.7853 43.2012 70.1494 43.2012 69.4737C43.2012 68.6391 43.3204 67.884 43.5986 67.2084C43.8768 66.493 44.2345 65.8968 44.7512 65.4199C45.2281 64.9032 45.8243 64.5058 46.4999 64.2276C47.1755 63.9494 47.9307 63.7904 48.7653 63.7904C49.4807 63.7904 50.1563 63.9096 50.8319 64.1878C51.5076 64.466 52.064 64.8635 52.5012 65.4199L51.2294 66.2545Z" fill="#094F8C"/>
<path d="M53.6935 71.0635C53.6935 70.5469 53.773 70.0699 53.9717 69.593C54.1704 69.1558 54.4486 68.7584 54.7666 68.4007C55.1242 68.043 55.5217 67.8046 55.9589 67.6058C56.4358 67.4071 56.9127 67.3276 57.4294 67.3276C57.946 67.3276 58.4627 67.4071 58.8999 67.6058C59.3768 67.8046 59.7742 68.0828 60.0922 68.4007C60.4499 68.7584 60.6884 69.1558 60.8871 69.593C61.0858 70.0302 61.1653 70.5469 61.1653 71.0635C61.1653 71.5802 61.0858 72.0571 60.8871 72.534C60.6884 73.011 60.4101 73.3687 60.0922 73.7264C59.7345 74.0443 59.3371 74.3225 58.8999 74.5212C58.423 74.7199 57.946 74.7994 57.4294 74.7994C56.9127 74.7994 56.396 74.7199 55.9589 74.5212C55.4819 74.3225 55.0845 74.0443 54.7666 73.7264C54.4089 73.4084 54.1704 73.011 53.9717 72.534C53.773 72.0571 53.6935 71.5802 53.6935 71.0635ZM55.164 71.0635C55.164 71.4212 55.2037 71.7392 55.323 72.0571C55.4422 72.3751 55.6012 72.6135 55.7999 72.852C55.9986 73.0507 56.2371 73.2494 56.555 73.3687C56.8332 73.4879 57.1909 73.5674 57.5486 73.5674C57.9063 73.5674 58.2242 73.4879 58.5422 73.3687C58.8204 73.2494 59.0589 73.0905 59.2973 72.852C59.5358 72.6135 59.655 72.3751 59.7743 72.0571C59.8935 71.7392 59.9332 71.4212 59.9332 71.0635C59.9332 70.7058 59.8935 70.3879 59.7743 70.0699C59.655 69.752 59.496 69.5135 59.2973 69.2751C59.0986 69.0366 58.8601 68.8776 58.5422 68.7584C58.264 68.6392 57.9063 68.5597 57.5486 68.5597C57.1909 68.5597 56.873 68.6392 56.555 68.7584C56.2768 68.8776 56.0384 69.0366 55.7999 69.2751C55.6012 69.4738 55.4422 69.752 55.323 70.0699C55.2037 70.3482 55.164 70.7058 55.164 71.0635Z" fill="#094F8C"/>
<path d="M62.9935 67.4866H64.3448V68.5994H64.3846C64.5435 68.202 64.8615 67.9238 65.2589 67.6853C65.6961 67.4469 66.173 67.3276 66.7294 67.3276C67.0871 67.3276 67.4051 67.3674 67.723 67.4866C68.041 67.6058 68.3192 67.7648 68.5576 67.9635C68.7961 68.202 68.9948 68.4802 69.114 68.7981C69.273 69.1558 69.3128 69.5533 69.3128 70.0302V74.6007H67.9615V70.3879C67.9615 70.0699 67.9217 69.7917 67.8422 69.5533C67.7628 69.3148 67.6435 69.1161 67.4846 68.9969C67.3256 68.8379 67.1666 68.7584 66.9679 68.6789C66.7692 68.5994 66.5705 68.5994 66.3717 68.5994C66.0935 68.5994 65.8153 68.6392 65.5769 68.7187C65.3384 68.7981 65.1397 68.9571 64.941 69.1558C64.7423 69.3546 64.623 69.593 64.5038 69.911C64.3846 70.2289 64.3448 70.5866 64.3448 70.984V74.6405H62.9935V67.4866Z" fill="#094F8C"/>
<path d="M75.1153 69.2749C74.9563 69.0762 74.7576 68.9172 74.5191 68.7583C74.2806 68.639 74.0024 68.5595 73.6447 68.5595C73.3268 68.5595 73.0486 68.639 72.8101 68.7583C72.5717 68.8775 72.4524 69.0762 72.4524 69.3544C72.4524 69.5531 72.5319 69.7519 72.6512 69.8711C72.7704 69.9903 72.9294 70.1095 73.1281 70.189C73.3268 70.2685 73.5255 70.348 73.7242 70.3878C73.9229 70.4275 74.1217 70.4672 74.2806 70.507C74.5588 70.5865 74.8371 70.666 75.1153 70.7454C75.3537 70.8647 75.5922 70.9839 75.7909 71.1429C75.9896 71.3019 76.1088 71.5006 76.2281 71.739C76.3473 71.9775 76.387 72.2557 76.387 72.5736C76.387 72.9711 76.3076 73.3288 76.1486 73.607C75.9896 73.8852 75.7512 74.1236 75.4729 74.3224C75.1947 74.5211 74.8768 74.6403 74.5588 74.7198C74.2011 74.7993 73.8832 74.839 73.5255 74.839C72.9294 74.839 72.4127 74.7595 71.9755 74.5608C71.5383 74.3621 71.1409 74.0442 70.7832 73.5672L71.8165 72.7326C72.055 72.9711 72.2935 73.1301 72.5717 73.3288C72.8499 73.4877 73.1678 73.5672 73.5653 73.5672C73.7242 73.5672 73.9229 73.5672 74.0819 73.5275C74.2409 73.4877 74.3999 73.448 74.5588 73.3685C74.6781 73.289 74.7973 73.2095 74.8768 73.0903C74.9563 72.9711 74.996 72.8519 74.996 72.6929C74.996 72.4942 74.9165 72.3352 74.7973 72.216C74.6781 72.0967 74.5191 71.9775 74.3601 71.898C74.2011 71.8185 74.0024 71.7788 73.8037 71.6993C73.605 71.6595 73.446 71.6198 73.2871 71.5801C73.0088 71.5006 72.7306 71.4211 72.4524 71.3416C72.1742 71.2621 71.9755 71.1429 71.7768 70.9839C71.5781 70.8249 71.4191 70.6262 71.2999 70.4275C71.1806 70.189 71.1012 69.9108 71.1012 69.5531C71.1012 69.1954 71.1806 68.8775 71.3396 68.5993C71.4986 68.3211 71.6973 68.0826 71.9755 67.9237C72.2537 67.7647 72.5319 67.6057 72.8499 67.5262C73.1678 67.4467 73.4858 67.407 73.8435 67.407C74.3204 67.407 74.7973 67.4865 75.2345 67.6852C75.6717 67.8839 76.0294 68.1621 76.2678 68.5993L75.1153 69.2749Z" fill="#094F8C"/>
<path d="M84.3358 74.6007H82.9846V73.4879H82.9448C82.7858 73.8854 82.4679 74.1636 82.0705 74.402C81.6333 74.6405 81.1563 74.7597 80.5999 74.7597C80.2422 74.7597 79.9243 74.72 79.6063 74.6007C79.2884 74.4815 79.0102 74.3225 78.7717 74.1238C78.5333 73.8854 78.3346 73.6071 78.2153 73.2892C78.0563 72.9315 78.0166 72.5341 78.0166 72.0572V67.4866H79.3679V71.6995C79.3679 72.0174 79.4076 72.2956 79.4871 72.5341C79.5666 72.7725 79.6858 72.9713 79.8448 73.0905C80.0038 73.2495 80.1628 73.329 80.3615 73.4084C80.5602 73.4879 80.7589 73.4879 80.9576 73.4879C81.2358 73.4879 81.514 73.4482 81.7525 73.3687C81.991 73.2892 82.1897 73.1302 82.3884 72.9315C82.5871 72.7328 82.7063 72.4943 82.8256 72.1764C82.9448 71.8584 82.9846 71.5007 82.9846 71.1033V67.4469H84.3358V74.6007Z" fill="#094F8C"/>
<path d="M86.3628 67.4866H87.6346V68.5994H87.6743C87.7141 68.4802 87.7936 68.3609 87.9128 68.2417C88.032 68.0827 88.191 67.9635 88.3897 67.8045C88.5884 67.6853 88.8269 67.5661 89.0654 67.4468C89.3436 67.3673 89.6218 67.2878 89.9397 67.2878C90.4564 67.2878 90.9333 67.4071 91.291 67.6058C91.6487 67.8443 91.9666 68.1622 92.1654 68.5994C92.4038 68.1622 92.7218 67.8443 93.1589 67.6058C93.5961 67.3673 93.9936 67.2878 94.4307 67.2878C94.9871 67.2878 95.4243 67.3673 95.782 67.566C96.1397 67.7648 96.4179 68.0032 96.6166 68.2814C96.8154 68.5596 96.9743 68.9173 97.0141 69.275C97.0936 69.6327 97.1333 70.0302 97.1333 70.4276V74.5609H95.782V70.5866C95.782 70.3084 95.782 70.0699 95.7423 69.7917C95.7025 69.5532 95.6231 69.3148 95.5436 69.116C95.4243 68.9173 95.2654 68.7584 95.0666 68.6391C94.8679 68.5199 94.5897 68.4801 94.2718 68.4801C93.6359 68.4801 93.1589 68.6789 92.8807 69.0763C92.6025 69.4737 92.4436 69.9904 92.4436 70.6263V74.5212H91.0923V70.7853C91.0923 70.4276 91.0923 70.1494 91.0525 69.8712C91.0128 69.593 90.9333 69.3545 90.8538 69.1558C90.7346 68.9571 90.6154 68.7981 90.4166 68.6789C90.2179 68.5596 89.9397 68.5199 89.6218 68.5199C89.3833 68.5199 89.1448 68.5596 88.9064 68.6789C88.6679 68.7584 88.4692 68.9173 88.3102 69.116C88.1513 69.3148 87.9923 69.5532 87.9128 69.8314C87.7936 70.1096 87.7538 70.4673 87.7538 70.8648V74.5609H86.4025V67.4866H86.3628Z" fill="#094F8C"/>
<path d="M100.194 71.5405C100.194 71.8585 100.273 72.1367 100.392 72.3751C100.512 72.6136 100.71 72.8521 100.909 73.011C101.147 73.2097 101.386 73.329 101.664 73.4482C101.942 73.5674 102.26 73.6072 102.578 73.6072C103.015 73.6072 103.373 73.5277 103.691 73.329C104.009 73.1303 104.287 72.8918 104.565 72.5738L105.599 73.3687C104.844 74.3226 103.81 74.8392 102.459 74.8392C101.903 74.8392 101.386 74.7597 100.949 74.561C100.512 74.3623 100.114 74.1238 99.7961 73.7662C99.4782 73.4482 99.2397 73.0508 99.0807 72.5738C98.9218 72.1367 98.8423 71.62 98.8423 71.1033C98.8423 70.5867 98.9218 70.07 99.1205 69.6328C99.3192 69.1956 99.5577 68.7982 99.8756 68.4405C100.194 68.1226 100.591 67.8444 101.028 67.6456C101.465 67.4469 101.982 67.3674 102.499 67.3674C103.135 67.3674 103.651 67.4867 104.088 67.6854C104.526 67.9238 104.883 68.202 105.162 68.5597C105.44 68.9174 105.638 69.3149 105.758 69.752C105.877 70.1892 105.956 70.6661 105.956 71.1033V71.5803H100.194V71.5405ZM104.486 70.4674C104.486 70.1495 104.446 69.911 104.327 69.6328C104.247 69.3944 104.128 69.1559 103.929 68.9969C103.77 68.7982 103.532 68.679 103.294 68.5597C103.055 68.4405 102.737 68.4008 102.419 68.4008C102.101 68.4008 101.783 68.4803 101.505 68.5995C101.227 68.7187 100.988 68.8777 100.79 69.0764C100.591 69.2751 100.432 69.5136 100.353 69.752C100.233 69.9905 100.194 70.229 100.194 70.4674H104.486Z" fill="#094F8C"/>
<path d="M107.546 67.4866H108.897V68.5994H108.937C109.017 68.4007 109.136 68.2417 109.295 68.0828C109.454 67.9238 109.613 67.8046 109.812 67.6853C110.01 67.5661 110.209 67.4866 110.408 67.4071C110.606 67.3276 110.845 67.3276 111.083 67.3276C111.322 67.3276 111.521 67.3674 111.679 67.4071L111.6 68.8776C111.481 68.8379 111.362 68.8379 111.282 68.7981C111.163 68.7981 111.044 68.7584 110.964 68.7584C110.288 68.7584 109.812 68.9571 109.454 69.3148C109.096 69.6725 108.937 70.2687 108.937 71.0238V74.6007H107.586V67.4866H107.546Z" fill="#094F8C"/>
<path d="M117.601 63.9891H121.337C122.013 63.9891 122.569 64.0686 123.006 64.2673C123.443 64.4661 123.801 64.7045 124.04 64.9827C124.278 65.2609 124.477 65.5789 124.556 65.9366C124.675 66.2943 124.715 66.652 124.715 66.9699C124.715 67.2879 124.675 67.6455 124.556 68.0032C124.437 68.3609 124.278 68.6789 124.04 68.9571C123.801 69.2353 123.443 69.4738 123.006 69.6725C122.569 69.8712 122.013 69.9507 121.337 69.9507H119.032V74.6404H117.601V63.9891ZM119.072 68.6391H120.979C121.257 68.6391 121.536 68.5994 121.814 68.5596C122.092 68.5199 122.331 68.4404 122.569 68.3212C122.807 68.202 122.966 68.043 123.086 67.8045C123.205 67.5661 123.284 67.2879 123.284 66.9302C123.284 66.5725 123.205 66.2943 123.086 66.0558C122.966 65.8173 122.768 65.6584 122.569 65.5391C122.37 65.4199 122.092 65.3404 121.814 65.3007C121.536 65.2609 121.257 65.2212 120.979 65.2212H119.072V68.6391Z" fill="#094F8C"/>
<path d="M126.186 67.4866H127.537V68.5994H127.577C127.656 68.4007 127.776 68.2417 127.935 68.0828C128.094 67.9238 128.253 67.8046 128.451 67.6853C128.65 67.5661 128.849 67.4866 129.047 67.4071C129.246 67.3276 129.485 67.3276 129.723 67.3276C129.962 67.3276 130.16 67.3674 130.319 67.4071L130.24 68.8776C130.121 68.8379 130.001 68.8379 129.922 68.7981C129.803 68.7981 129.683 68.7584 129.604 68.7584C128.928 68.7584 128.451 68.9571 128.094 69.3148C127.736 69.6725 127.577 70.2687 127.577 71.0238V74.6007H126.226V67.4866H126.186Z" fill="#094F8C"/>
<path d="M131.114 71.0635C131.114 70.5469 131.193 70.0699 131.392 69.593C131.591 69.1558 131.869 68.7584 132.187 68.4007C132.545 68.043 132.942 67.8046 133.379 67.6058C133.856 67.4071 134.333 67.3276 134.85 67.3276C135.367 67.3276 135.883 67.4071 136.32 67.6058C136.797 67.8046 137.195 68.0828 137.513 68.4007C137.87 68.7584 138.109 69.1558 138.308 69.593C138.506 70.0302 138.586 70.5469 138.586 71.0635C138.586 71.5802 138.506 72.0571 138.308 72.534C138.109 72.9712 137.831 73.3687 137.513 73.7264C137.155 74.0443 136.758 74.3225 136.32 74.5212C135.844 74.7199 135.367 74.7994 134.85 74.7994C134.333 74.7994 133.817 74.7199 133.379 74.5212C132.902 74.3225 132.505 74.0443 132.187 73.7264C131.829 73.4084 131.591 73.011 131.392 72.534C131.233 72.0571 131.114 71.5802 131.114 71.0635ZM132.585 71.0635C132.585 71.4212 132.624 71.7392 132.744 72.0571C132.863 72.3751 133.022 72.6135 133.22 72.852C133.419 73.0507 133.658 73.2494 133.976 73.3687C134.254 73.4879 134.572 73.5674 134.969 73.5674C135.327 73.5674 135.645 73.4879 135.963 73.3687C136.281 73.2494 136.479 73.0905 136.718 72.852C136.917 72.6533 137.076 72.3751 137.195 72.0571C137.314 71.7392 137.354 71.4212 137.354 71.0635C137.354 70.7058 137.314 70.3879 137.195 70.0699C137.076 69.752 136.917 69.5135 136.718 69.2751C136.519 69.0764 136.281 68.8776 135.963 68.7584C135.645 68.6392 135.327 68.5597 134.969 68.5597C134.611 68.5597 134.293 68.6392 133.976 68.7584C133.697 68.8776 133.459 69.0366 133.22 69.2751C133.022 69.4738 132.863 69.752 132.744 70.0699C132.624 70.3482 132.585 70.7058 132.585 71.0635Z" fill="#094F8C"/>
<path d="M144.229 68.6391H142.282V71.8583C142.282 72.057 142.282 72.2557 142.282 72.4545C142.282 72.6532 142.322 72.8121 142.401 72.9711C142.481 73.1301 142.56 73.2493 142.719 73.3288C142.838 73.4083 143.037 73.4878 143.315 73.4878C143.474 73.4878 143.633 73.4878 143.792 73.448C143.951 73.4083 144.11 73.3685 144.269 73.2891V74.5211C144.11 74.6006 143.911 74.6801 143.633 74.7198C143.395 74.7596 143.196 74.7596 143.037 74.7596C142.52 74.7596 142.123 74.6801 141.845 74.5609C141.567 74.4416 141.368 74.2429 141.209 74.0044C141.09 73.766 141.01 73.5275 140.97 73.2493C140.931 72.9711 140.931 72.6929 140.931 72.375V68.6788H139.381V67.5262H140.931V65.5391H142.282V67.5262H144.229V68.6391Z" fill="#094F8C"/>
<path d="M146.972 71.5405C146.972 71.8585 147.051 72.1367 147.17 72.3751C147.29 72.6136 147.488 72.8521 147.687 73.011C147.926 73.2097 148.164 73.329 148.442 73.4482C148.72 73.5674 149.038 73.6072 149.356 73.6072C149.794 73.6072 150.151 73.5277 150.469 73.329C150.787 73.1303 151.065 72.8918 151.344 72.5738L152.377 73.3687C151.622 74.3226 150.588 74.8392 149.237 74.8392C148.681 74.8392 148.164 74.7597 147.727 74.561C147.29 74.3623 146.892 74.1238 146.574 73.7662C146.256 73.4482 146.018 73.0508 145.859 72.5738C145.7 72.1367 145.62 71.62 145.62 71.1033C145.62 70.5867 145.7 70.07 145.899 69.6328C146.097 69.1956 146.336 68.7982 146.654 68.4405C146.972 68.1226 147.369 67.8444 147.806 67.6456C148.244 67.4469 148.76 67.3674 149.277 67.3674C149.913 67.3674 150.429 67.4867 150.867 67.6854C151.304 67.9238 151.662 68.202 151.94 68.5597C152.218 68.9174 152.417 69.3149 152.536 69.752C152.655 70.1892 152.735 70.6661 152.735 71.1033V71.5803H146.972V71.5405ZM151.264 70.4674C151.264 70.1495 151.224 69.911 151.105 69.6328C151.026 69.3944 150.906 69.1559 150.708 68.9969C150.549 68.7982 150.31 68.679 150.072 68.5597C149.833 68.4405 149.515 68.4008 149.197 68.4008C148.879 68.4008 148.562 68.4803 148.283 68.5995C148.005 68.7187 147.767 68.8777 147.568 69.0764C147.369 69.2751 147.21 69.5136 147.131 69.752C147.012 69.9905 146.972 70.229 146.972 70.4674H151.264Z" fill="#094F8C"/>
<path d="M159.412 69.3943C159.173 69.116 158.895 68.9173 158.617 68.7981C158.338 68.6789 158.021 68.5994 157.623 68.5994C157.265 68.5994 156.947 68.6789 156.669 68.7981C156.391 68.9173 156.153 69.116 155.994 69.3545C155.795 69.593 155.676 69.8712 155.556 70.1494C155.477 70.4673 155.397 70.7853 155.397 71.1032C155.397 71.4212 155.437 71.7391 155.556 72.0571C155.676 72.3353 155.835 72.6135 156.033 72.8122C156.232 73.0507 156.471 73.2096 156.749 73.3289C157.027 73.4481 157.345 73.5276 157.703 73.5276C158.1 73.5276 158.418 73.4481 158.696 73.3289C158.974 73.2096 159.213 73.0109 159.451 72.7327L160.405 73.6866C160.047 74.084 159.65 74.3622 159.173 74.5212C158.696 74.6801 158.219 74.7596 157.703 74.7596C157.146 74.7596 156.629 74.6801 156.192 74.4814C155.755 74.2827 155.358 74.0443 155 73.7263C154.642 73.4084 154.404 73.0109 154.245 72.534C154.046 72.0968 153.967 71.5802 153.967 71.0237C153.967 70.4673 154.046 69.9507 154.245 69.5135C154.444 69.0366 154.682 68.6391 155 68.3212C155.318 68.0032 155.715 67.725 156.192 67.566C156.629 67.3673 157.146 67.2878 157.703 67.2878C158.219 67.2878 158.736 67.3673 159.213 67.566C159.69 67.7648 160.087 68.043 160.445 68.4007L159.412 69.3943Z" fill="#094F8C"/>
<path d="M165.373 68.6391H163.426V71.8583C163.426 72.057 163.426 72.2557 163.426 72.4545C163.426 72.6532 163.465 72.8121 163.545 72.9711C163.624 73.1301 163.704 73.2493 163.863 73.3288C163.982 73.4083 164.181 73.4878 164.459 73.4878C164.618 73.4878 164.777 73.4878 164.936 73.448C165.095 73.4083 165.254 73.3685 165.413 73.2891V74.5211C165.254 74.6006 165.055 74.6801 164.777 74.7198C164.539 74.7596 164.34 74.7596 164.181 74.7596C163.664 74.7596 163.267 74.6801 162.989 74.5609C162.71 74.4416 162.512 74.2429 162.353 74.0044C162.233 73.766 162.154 73.5275 162.114 73.2493C162.074 72.9711 162.074 72.6929 162.074 72.375V68.6788H160.524V67.5262H162.074V65.5391H163.426V67.5262H165.373V68.6391Z" fill="#094F8C"/>
<path d="M166.923 64.9429C166.923 64.6647 167.003 64.4263 167.201 64.2275C167.4 64.0288 167.638 63.9493 167.917 63.9493C168.195 63.9493 168.433 64.0288 168.632 64.2275C168.831 64.4263 168.91 64.6647 168.91 64.9429C168.91 65.2211 168.831 65.4596 168.632 65.6583C168.433 65.857 168.195 65.9365 167.917 65.9365C167.638 65.9365 167.4 65.857 167.201 65.6583C167.003 65.4199 166.923 65.2211 166.923 64.9429ZM167.241 67.4865H168.592V74.6006H167.241V67.4865Z" fill="#094F8C"/>
<path d="M170.381 71.0635C170.381 70.5469 170.46 70.0699 170.659 69.593C170.858 69.1558 171.136 68.7584 171.454 68.4007C171.811 68.043 172.209 67.8046 172.646 67.6058C173.123 67.4071 173.6 67.3276 174.117 67.3276C174.633 67.3276 175.15 67.4071 175.587 67.6058C176.064 67.8046 176.461 68.0828 176.779 68.4007C177.137 68.7584 177.375 69.1558 177.574 69.593C177.773 70.0302 177.852 70.5469 177.852 71.0635C177.852 71.5802 177.773 72.0571 177.574 72.534C177.375 72.9712 177.097 73.3687 176.779 73.7264C176.422 74.0443 176.024 74.3225 175.587 74.5212C175.11 74.7199 174.633 74.7994 174.117 74.7994C173.6 74.7994 173.083 74.7199 172.646 74.5212C172.169 74.3225 171.772 74.0443 171.454 73.7264C171.096 73.4084 170.858 73.011 170.659 72.534C170.5 72.0571 170.381 71.5802 170.381 71.0635ZM171.851 71.0635C171.851 71.4212 171.891 71.7392 172.01 72.0571C172.129 72.3751 172.288 72.6135 172.487 72.852C172.686 73.0507 172.924 73.2494 173.242 73.3687C173.52 73.4879 173.838 73.5674 174.236 73.5674C174.593 73.5674 174.911 73.4879 175.229 73.3687C175.547 73.2494 175.746 73.0905 175.984 72.852C176.183 72.6533 176.342 72.3751 176.461 72.0571C176.581 71.7392 176.62 71.4212 176.62 71.0635C176.62 70.7058 176.581 70.3879 176.461 70.0699C176.342 69.752 176.183 69.5135 175.984 69.2751C175.786 69.0764 175.547 68.8776 175.229 68.7584C174.911 68.6392 174.593 68.5597 174.236 68.5597C173.878 68.5597 173.56 68.6392 173.242 68.7584C172.964 68.8776 172.725 69.0366 172.487 69.2751C172.288 69.4738 172.129 69.752 172.01 70.0699C171.891 70.3482 171.851 70.7058 171.851 71.0635Z" fill="#094F8C"/>
<path d="M179.681 67.4866H181.032V68.5994H181.072C181.231 68.202 181.549 67.9238 181.946 67.6853C182.383 67.4469 182.86 67.3276 183.417 67.3276C183.774 67.3276 184.092 67.3674 184.41 67.4866C184.728 67.6058 185.006 67.7648 185.245 67.9635C185.483 68.202 185.682 68.4802 185.801 68.7981C185.96 69.1558 186 69.5533 186 70.0302V74.6007H184.649V70.3879C184.649 70.0699 184.609 69.7917 184.529 69.5533C184.45 69.3148 184.331 69.1161 184.172 68.9969C184.013 68.8776 183.854 68.7584 183.655 68.6789C183.456 68.5994 183.258 68.5994 183.059 68.5994C182.781 68.5994 182.502 68.6392 182.264 68.7187C182.026 68.7981 181.827 68.9571 181.628 69.1558C181.429 69.3546 181.31 69.593 181.191 69.911C181.072 70.2289 181.032 70.5866 181.032 70.984V74.6405H179.681V67.4866Z" fill="#094F8C"/>
<path d="M36.7231 64.2672H0.755127V68.5198H36.7231V64.2672Z" fill="#93BCE4"/>
<path d="M37.518 70.3877H0V74.6403H37.518V70.3877Z" fill="#93BCE4"/>
</svg>
