<svg width="142" height="35" viewBox="0 0 142 35" fill="none" xmlns="http://www.w3.org/2000/svg">
<path d="M11.6476 28.3954L5.9646 20.1268V28.3954H1.30554V12.9846H6.1182L11.4684 20.7412V12.9846H16.1275V28.3954H11.6476Z" fill="white"/>
<path d="M25.9833 12.7542C30.7448 12.7542 34.4055 15.9797 34.4055 20.7155C34.4055 25.4514 30.7448 28.6769 25.9833 28.6769C21.2218 28.6769 17.5612 25.4514 17.5612 20.7155C17.5612 15.9797 21.2218 12.7542 25.9833 12.7542ZM25.9833 16.85C23.7306 16.85 22.297 18.5652 22.297 20.7155C22.297 22.8659 23.7562 24.581 25.9833 24.581C28.236 24.581 29.6696 22.8659 29.6696 20.7155C29.6696 18.5652 28.2104 16.85 25.9833 16.85Z" fill="white"/>
<path d="M35.8134 28.3954V12.9846H45.1571C48.357 12.9846 49.7393 15.1094 49.7393 16.9013C49.7393 18.8213 48.613 20.1012 47.1026 20.434C48.7666 20.69 50.0465 22.2004 50.0465 24.1971C50.0465 26.3474 48.5874 28.3698 45.4899 28.3698H35.8134V28.3954ZM40.498 18.7189H44.1075C44.5939 18.7189 45.0291 18.2837 45.0291 17.7205C45.0291 17.1829 44.5939 16.7733 44.1075 16.7733H40.498V18.7189ZM40.498 24.6067H44.2355C44.9011 24.6067 45.3107 24.1459 45.3107 23.5571C45.3107 22.9939 44.9011 22.4819 44.2355 22.4819H40.498V24.6067Z" fill="white"/>
<path d="M51.6593 28.3954V12.9846H56.3184V24.3251H62.155V28.3954H51.6593Z" fill="white"/>
<path d="M63.7933 28.3954V12.9846H75.4922V16.8757H68.478V18.6677H75.3386V22.5587H68.478V24.5299H75.4922V28.3954H63.7933Z" fill="white"/>
<path d="M76.8746 20.3828C76.8746 15.5445 80.4073 12.0886 85.2712 12.0886C90.1094 12.0886 93.6421 15.5445 93.6421 20.3828C93.6421 22.6355 92.8486 24.6323 91.543 26.0658L92.7206 27.4482L90.3398 29.3937L89.0343 27.909C87.9335 28.421 86.628 28.7025 85.2456 28.7025C80.4329 28.7025 76.8746 25.221 76.8746 20.3828ZM86.9351 25.4002L85.1688 23.3267L87.5495 21.3812L89.3159 23.4547C89.8535 22.6099 90.135 21.5604 90.135 20.4084C90.135 17.3877 88.2407 15.1349 85.2712 15.1349C82.2761 15.1349 80.3817 17.3877 80.3817 20.4084C80.3817 23.4035 82.2761 25.6818 85.2712 25.6818C85.8856 25.6562 86.4488 25.5538 86.9351 25.4002Z" fill="#93BCE4"/>
<path d="M103.575 28.3953V26.9361C102.781 27.8065 101.373 28.7024 99.4788 28.7024C96.9189 28.7024 95.7157 27.2945 95.7157 25.0418V16.7732H98.762V23.8386C98.762 25.4513 99.6068 25.9889 100.912 25.9889C102.09 25.9889 103.037 25.3489 103.549 24.6578V16.7732H106.595V28.3953H103.575Z" fill="#93BCE4"/>
<path d="M108.669 22.5843C108.669 19.282 110.973 16.4917 114.813 16.4917C118.653 16.4917 120.982 19.282 120.982 22.5843C120.982 25.8866 118.678 28.7025 114.813 28.7025C110.973 28.7025 108.669 25.8866 108.669 22.5843ZM117.782 22.5843C117.782 20.7668 116.733 19.2052 114.787 19.2052C112.893 19.2052 111.818 20.7668 111.818 22.5843C111.818 24.4019 112.867 25.989 114.787 25.989C116.733 25.9634 117.782 24.4019 117.782 22.5843Z" fill="#93BCE4"/>
<path d="M123.619 25.5026V19.4611H121.699V16.7988H123.619V13.6245H126.665V16.7988H129.02V19.4611H126.665V24.6834C126.665 25.4258 127.049 25.989 127.715 25.989C128.176 25.989 128.611 25.8098 128.764 25.6306L129.404 27.9601C128.944 28.3697 128.124 28.7025 126.844 28.7025C124.745 28.7025 123.619 27.5761 123.619 25.5026Z" fill="#93BCE4"/>
<path d="M130.121 22.5843C130.121 19.2052 132.63 16.4917 136.137 16.4917C139.618 16.4917 141.974 19.1028 141.974 22.8659V23.5827H133.321C133.526 24.9907 134.703 26.1938 136.674 26.1938C137.673 26.1938 139.004 25.7842 139.746 25.0675L141.129 27.0898C139.977 28.1394 138.134 28.7025 136.342 28.7025C132.783 28.7025 130.121 26.3218 130.121 22.5843ZM136.137 19.0004C134.243 19.0004 133.423 20.3316 133.295 21.4836H139.03C138.927 20.3572 138.159 19.0004 136.137 19.0004Z" fill="#93BCE4"/>
<path d="M13.6188 0.671387L12.6461 4.46008H10.5213L11.5197 0.671387H5.65747L6.65584 4.46008H4.5311L3.58393 0.671387H0.640015L2.79035 8.35117H14.4636L16.486 0.824984V0.671387H13.6188Z" fill="#93BCE4"/>
<path d="M2.99512 10.1687H14.1564" stroke="#93BCE4" stroke-width="1.94035" stroke-miterlimit="10" stroke-linecap="round"/>
<path d="M16.9211 30.2639H0.358398V32.2095H16.9211V30.2639Z" fill="#93BCE4"/>
<path d="M17.2795 33.0544H0V35H17.2795V33.0544Z" fill="#93BCE4"/>
</svg>
