<svg width="249" height="61" viewBox="0 0 249 61" fill="none" xmlns="http://www.w3.org/2000/svg">
<path d="M20.4283 48.6238L10.4611 34.122V48.6238H2.28979V21.5957H10.7305L20.114 35.1996V21.5957H28.2853V48.6238H20.4283Z" fill="white"/>
<path d="M45.5706 21.1914C53.9215 21.1914 60.3418 26.8485 60.3418 35.1544C60.3418 43.4604 53.9215 49.1175 45.5706 49.1175C37.2197 49.1175 30.7994 43.4604 30.7994 35.1544C30.7994 26.8485 37.2197 21.1914 45.5706 21.1914ZM45.5706 28.375C41.6197 28.375 39.1054 31.3831 39.1054 35.1544C39.1054 38.9258 41.6646 41.9339 45.5706 41.9339C49.5216 41.9339 52.0358 38.9258 52.0358 35.1544C52.0358 31.3831 49.4767 28.375 45.5706 28.375Z" fill="white"/>
<path d="M62.8112 48.6238V21.5957H79.1986C84.8108 21.5957 87.2352 25.3222 87.2352 28.465C87.2352 31.8323 85.2598 34.0771 82.6108 34.6608C85.5292 35.1098 87.774 37.7587 87.774 41.2607C87.774 45.0321 85.2149 48.5789 79.7823 48.5789H62.8112V48.6238ZM71.0273 31.6527H77.3579C78.2109 31.6527 78.9742 30.8894 78.9742 29.9017C78.9742 28.9588 78.2109 28.2405 77.3579 28.2405H71.0273V31.6527ZM71.0273 41.979H77.5823C78.7497 41.979 79.468 41.1709 79.468 40.1383C79.468 39.1505 78.7497 38.2526 77.5823 38.2526H71.0273V41.979Z" fill="white"/>
<path d="M90.6025 48.6238V21.5957H98.7738V41.4852H109.01V48.6238H90.6025Z" fill="white"/>
<path d="M111.884 48.6238V21.5957H132.402V28.4201H120.1V31.5629H132.133V38.3873H120.1V41.8443H132.402V48.6238H111.884Z" fill="white"/>
<path d="M134.826 34.5706C134.826 26.085 141.022 20.0239 149.553 20.0239C158.038 20.0239 164.234 26.085 164.234 34.5706C164.234 38.5216 162.842 42.0236 160.553 44.5378L162.618 46.9623L158.442 50.3744L156.153 47.7704C154.222 48.6684 151.932 49.1622 149.508 49.1622C141.067 49.1622 134.826 43.0562 134.826 34.5706ZM152.471 43.3705L149.373 39.7338L153.549 36.3216L156.646 39.9583C157.589 38.4767 158.083 36.6359 158.083 34.6155C158.083 29.3177 154.761 25.3667 149.553 25.3667C144.3 25.3667 140.977 29.3177 140.977 34.6155C140.977 39.8685 144.3 43.8643 149.553 43.8643C150.63 43.8195 151.618 43.6399 152.471 43.3705Z" fill="#93BCE4"/>
<path d="M181.654 48.6236V46.0644C180.262 47.5909 177.793 49.1623 174.471 49.1623C169.981 49.1623 167.871 46.693 167.871 42.742V28.2402H173.213V40.6319C173.213 43.4604 174.695 44.4032 176.985 44.4032C179.05 44.4032 180.711 43.2808 181.609 42.0686V28.2402H186.952V48.6236H181.654Z" fill="#93BCE4"/>
<path d="M190.589 38.4321C190.589 32.6404 194.63 27.7466 201.364 27.7466C208.099 27.7466 212.184 32.6404 212.184 38.4321C212.184 44.2239 208.144 49.1626 201.364 49.1626C194.63 49.1626 190.589 44.2239 190.589 38.4321ZM206.572 38.4321C206.572 35.2444 204.731 32.5057 201.319 32.5057C197.997 32.5057 196.111 35.2444 196.111 38.4321C196.111 41.6198 197.952 44.4035 201.319 44.4035C204.731 44.3586 206.572 41.6198 206.572 38.4321Z" fill="#93BCE4"/>
<path d="M216.809 43.5506V32.9548H213.441V28.2855H216.809V22.7183H222.151V28.2855H226.282V32.9548H222.151V42.1139C222.151 43.4159 222.825 44.4036 223.992 44.4036C224.8 44.4036 225.564 44.0893 225.833 43.7751L226.955 47.8607C226.147 48.5791 224.711 49.1627 222.466 49.1627C218.784 49.1627 216.809 47.1872 216.809 43.5506Z" fill="#93BCE4"/>
<path d="M228.213 38.4321C228.213 32.5057 232.613 27.7466 238.763 27.7466C244.87 27.7466 249 32.3261 249 38.926V40.1831H233.825C234.184 42.6525 236.249 44.7626 239.706 44.7626C241.457 44.7626 243.792 44.0443 245.094 42.7872L247.518 46.334C245.498 48.1748 242.265 49.1626 239.123 49.1626C232.882 49.1626 228.213 44.9871 228.213 38.4321ZM238.763 32.1465C235.441 32.1465 234.004 34.4812 233.78 36.5015H243.837C243.657 34.5261 242.31 32.1465 238.763 32.1465Z" fill="#93BCE4"/>
<path d="M23.8854 0L22.1794 6.64479H18.4529L20.2039 0H9.92242L11.6734 6.64479H7.94694L6.28574 0H1.12256L4.89393 13.4692H25.3671L28.9139 0.269386V0H23.8854Z" fill="#93BCE4"/>
<path d="M5.25293 16.6567H24.8281" stroke="#93BCE4" stroke-width="3.40308" stroke-miterlimit="10" stroke-linecap="round"/>
<path d="M29.6772 51.9014H0.628662V55.3136H29.6772V51.9014Z" fill="#93BCE4"/>
<path d="M30.3056 56.7944H0V60.2066H30.3056V56.7944Z" fill="#93BCE4"/>
</svg>
