<svg width="100" height="40" viewBox="0 0 100 40" fill="none" xmlns="http://www.w3.org/2000/svg">
<path d="M13.5598 32.1917L6.93902 22.5577V32.1917H1.50659V14.2393H7.10878L13.3476 23.2792V14.2393H18.78V32.1917H13.5598Z" fill="white"/>
<path d="M30.5359 13.9629C36.0745 13.9629 40.361 17.7401 40.361 23.2574C40.361 28.7748 36.0745 32.552 30.5359 32.552C24.9974 32.552 20.7109 28.7748 20.7109 23.2574C20.7321 17.7189 24.9974 13.9629 30.5359 13.9629ZM30.5359 18.7375C27.9258 18.7375 26.2282 20.7322 26.2282 23.2362C26.2282 25.7402 27.9258 27.735 30.5359 27.735C33.1461 27.735 34.8437 25.7402 34.8437 23.2362C34.8437 20.7322 33.1461 18.7375 30.5359 18.7375Z" fill="white"/>
<path d="M42.3137 32.1917V14.2393H53.221C56.9346 14.2393 58.5473 16.722 58.5473 18.8229C58.5473 21.051 57.2317 22.5577 55.4704 22.9396C57.4014 23.2367 58.8869 25.0192 58.8869 27.3323C58.8869 29.8363 57.1892 32.213 53.5818 32.213H42.3137V32.1917ZM47.7462 20.9237H51.9478C52.5207 20.9237 53.03 20.4144 53.03 19.7566C53.03 19.1412 52.5207 18.6531 51.9478 18.6531H47.7462V20.9237ZM47.7462 27.7779H52.0963C52.8815 27.7779 53.3696 27.2474 53.3696 26.5683C53.3696 25.9317 52.8815 25.3375 52.0963 25.3375H47.7462V27.7779Z" fill="white"/>
<path d="M61.051 32.1917V14.2393H66.4834V27.4596H73.2952V32.1917H61.051Z" fill="white"/>
<path d="M75.4811 32.1917V14.2393H89.1046V18.7592H80.9135V20.86H88.9136V25.38H80.9135V27.6718H89.1046V32.1917H75.4811Z" fill="white"/>
<path d="M15.7667 0L14.6633 4.39263H12.2017L13.3476 0H6.55707L7.70298 4.39263H5.24141L4.13794 0H0.742676L3.20425 8.91258H16.7641L19.0771 0.190984V0H15.7667Z" fill="#93BCE4"/>
<path d="M3.4588 11.0342H16.4033" stroke="#93BCE4" stroke-width="2.24656" stroke-miterlimit="10" stroke-linecap="round"/>
<path d="M27.3531 35.3523C27.1834 35.1401 26.9924 34.9915 26.7377 34.8642C26.4831 34.7369 26.2284 34.6945 25.9738 34.6945C25.6555 34.6945 25.3584 34.7581 25.1038 34.8854C24.8491 35.0128 24.6157 35.1613 24.4459 35.3735C24.2549 35.5857 24.1276 35.8191 24.0215 36.1162C23.9154 36.3921 23.873 36.6892 23.873 37.0287C23.873 37.3258 23.9154 37.6017 24.0215 37.8775C24.1276 38.1534 24.2549 38.3868 24.4459 38.5778C24.6369 38.79 24.8491 38.9385 25.1038 39.0659C25.3584 39.1932 25.6555 39.2356 25.995 39.2356C26.3133 39.2356 26.6104 39.172 26.8438 39.0446C27.0985 38.9173 27.2895 38.7263 27.4592 38.4929L28.1171 38.981C28.0746 39.0446 27.9897 39.1295 27.8836 39.2356C27.7775 39.3417 27.629 39.4478 27.4592 39.5752C27.2895 39.7025 27.0773 39.7874 26.8226 39.8722C26.568 39.9571 26.2921 39.9996 25.9526 39.9996C25.5069 39.9996 25.1038 39.9147 24.743 39.7449C24.3823 39.5752 24.064 39.3417 23.8305 39.0659C23.5759 38.79 23.3849 38.4717 23.2576 38.1322C23.1303 37.7714 23.0666 37.4319 23.0666 37.0711C23.0666 36.6255 23.1303 36.2223 23.2788 35.8616C23.4273 35.4796 23.6183 35.1613 23.8942 34.9067C24.1488 34.6308 24.4671 34.4186 24.8279 34.27C25.1886 34.1215 25.5918 34.0366 26.0374 34.0366C26.4194 34.0366 26.7802 34.1003 27.1409 34.2488C27.5017 34.3974 27.7987 34.6096 28.0322 34.9067L27.3531 35.3523Z" fill="white"/>
<path d="M28.6688 37.921C28.6688 37.6451 28.7113 37.3905 28.8174 37.1358C28.9235 36.9024 29.072 36.6902 29.2418 36.4992C29.4328 36.3082 29.645 36.1809 29.8784 36.0748C30.133 35.9687 30.3877 35.9263 30.6635 35.9263C30.9394 35.9263 31.2153 35.9687 31.4487 36.0748C31.7033 36.1809 31.9155 36.3295 32.0853 36.4992C32.2763 36.6902 32.4036 36.9024 32.5097 37.1358C32.6158 37.3693 32.6583 37.6451 32.6583 37.921C32.6583 38.1969 32.6158 38.4515 32.5097 38.7061C32.4036 38.9608 32.2551 39.1518 32.0853 39.3428C31.8943 39.5125 31.6821 39.6611 31.4487 39.7672C31.1941 39.8733 30.9394 39.9157 30.6635 39.9157C30.3877 39.9157 30.1118 39.8733 29.8784 39.7672C29.6237 39.6611 29.4115 39.5125 29.2418 39.3428C29.0508 39.173 28.9235 38.9608 28.8174 38.7061C28.7113 38.4515 28.6688 38.1969 28.6688 37.921ZM29.454 37.921C29.454 38.112 29.4752 38.2817 29.5389 38.4515C29.6025 38.6213 29.6874 38.7486 29.7935 38.8759C29.8996 38.982 30.0269 39.0881 30.1967 39.1518C30.3452 39.2154 30.5362 39.2579 30.7272 39.2579C30.9182 39.2579 31.088 39.2154 31.2577 39.1518C31.4063 39.0881 31.5336 39.0032 31.6609 38.8759C31.7882 38.7486 31.8519 38.6213 31.9156 38.4515C31.9792 38.2817 32.0004 38.112 32.0004 37.921C32.0004 37.73 31.9792 37.5602 31.9156 37.3905C31.8519 37.2207 31.767 37.0934 31.6609 36.9661C31.5548 36.8387 31.4275 36.7539 31.2577 36.6902C31.1092 36.6265 30.9182 36.5841 30.7272 36.5841C30.5362 36.5841 30.3665 36.6265 30.1967 36.6902C30.0482 36.7539 29.9208 36.8387 29.7935 36.9661C29.6874 37.0722 29.6025 37.2207 29.5389 37.3905C29.4752 37.539 29.454 37.73 29.454 37.921Z" fill="white"/>
<path d="M33.6346 36.0111H34.3561V36.6053H34.3773C34.4622 36.3931 34.6319 36.2446 34.8441 36.1173C35.0776 35.9899 35.3322 35.9263 35.6293 35.9263C35.8203 35.9263 35.9901 35.9475 36.1598 36.0111C36.3296 36.0748 36.4781 36.1597 36.6054 36.2658C36.7328 36.3931 36.8389 36.5417 36.9025 36.7114C36.9874 36.9024 37.0086 37.1146 37.0086 37.3693V39.8096H36.2871V37.5602C36.2871 37.3905 36.2659 37.2419 36.2235 37.1146C36.181 36.9873 36.1174 36.8812 36.0325 36.8175C35.9476 36.7326 35.8627 36.6902 35.7566 36.6478C35.6505 36.6053 35.5444 36.6053 35.4383 36.6053C35.2898 36.6053 35.1412 36.6265 35.0139 36.669C34.8866 36.7114 34.7805 36.7963 34.6744 36.9024C34.5683 37.0085 34.5046 37.1358 34.441 37.3056C34.3773 37.4754 34.3561 37.6663 34.3561 37.8785V39.8308H33.6346V36.0111Z" fill="white"/>
<path d="M40.1067 36.9646C40.0218 36.8585 39.9157 36.7737 39.7884 36.6888C39.661 36.6251 39.5125 36.5827 39.3215 36.5827C39.1517 36.5827 39.0032 36.6251 38.8759 36.6888C38.7486 36.7524 38.6849 36.8585 38.6849 37.0071C38.6849 37.1132 38.7273 37.2193 38.791 37.283C38.8547 37.3466 38.9395 37.4103 39.0456 37.4527C39.1517 37.4952 39.2578 37.5376 39.364 37.5588C39.4701 37.58 39.5762 37.6013 39.661 37.6225C39.8096 37.6649 39.9581 37.7074 40.1067 37.7498C40.234 37.8135 40.3613 37.8771 40.4674 37.962C40.5735 38.0469 40.6372 38.153 40.7008 38.2803C40.7645 38.4076 40.7857 38.5562 40.7857 38.7259C40.7857 38.9381 40.7433 39.1291 40.6584 39.2777C40.5735 39.4262 40.4462 39.5535 40.2977 39.6596C40.1491 39.7657 39.9793 39.8294 39.8096 39.8718C39.6186 39.9143 39.4488 39.9355 39.2578 39.9355C38.9395 39.9355 38.6637 39.8931 38.4303 39.787C38.1968 39.6809 37.9846 39.5111 37.7936 39.2565L38.3454 38.8108C38.4727 38.9381 38.6 39.023 38.7486 39.1291C38.8971 39.214 39.0669 39.2565 39.2791 39.2565C39.364 39.2565 39.4701 39.2565 39.5549 39.2352C39.6398 39.214 39.7247 39.1928 39.8096 39.1503C39.8732 39.1079 39.9369 39.0655 39.9793 39.0018C40.0218 38.9381 40.043 38.8745 40.043 38.7896C40.043 38.6835 40.0006 38.5986 39.9369 38.535C39.8732 38.4713 39.7884 38.4076 39.7035 38.3652C39.6186 38.3228 39.5125 38.3015 39.4064 38.2591C39.3003 38.2379 39.2154 38.2167 39.1305 38.1954C38.982 38.153 38.8334 38.1105 38.6849 38.0681C38.5364 38.0257 38.4303 37.962 38.3242 37.8771C38.218 37.7922 38.1332 37.6861 38.0695 37.58C38.0058 37.4527 37.9634 37.3042 37.9634 37.1132C37.9634 36.9222 38.0058 36.7524 38.0907 36.6039C38.1756 36.4554 38.2817 36.328 38.4303 36.2432C38.5788 36.1583 38.7273 36.0734 38.8971 36.0309C39.0669 35.9885 39.2366 35.9673 39.4276 35.9673C39.6823 35.9673 39.9369 36.0097 40.1703 36.1158C40.4038 36.2219 40.5947 36.3705 40.7221 36.6039L40.1067 36.9646Z" fill="white"/>
<path d="M45.0297 39.8087H44.3083V39.2145H44.287C44.2022 39.4267 44.0324 39.5753 43.8202 39.7026C43.5868 39.8299 43.3321 39.8936 43.035 39.8936C42.844 39.8936 42.6743 39.8724 42.5045 39.8087C42.3348 39.745 42.1862 39.6601 42.0589 39.554C41.9316 39.4267 41.8255 39.2782 41.7618 39.1084C41.6769 38.9174 41.6557 38.7052 41.6557 38.4506V36.0102H42.3772V38.2596C42.3772 38.4294 42.3984 38.5779 42.4409 38.7052C42.4833 38.8325 42.547 38.9386 42.6318 39.0023C42.7167 39.0872 42.8016 39.1296 42.9077 39.1721C43.0138 39.2145 43.1199 39.2145 43.226 39.2145C43.3746 39.2145 43.5231 39.1933 43.6504 39.1509C43.7777 39.1084 43.8838 39.0235 43.9899 38.9174C44.0961 38.8113 44.1597 38.684 44.2234 38.5142C44.287 38.3445 44.3083 38.1535 44.3083 37.9413V35.989H45.0297V39.8087Z" fill="white"/>
<path d="M46.1118 36.0109H46.7908V36.6051H46.812C46.8332 36.5414 46.8757 36.4777 46.9394 36.4141C47.003 36.3292 47.0879 36.2655 47.194 36.1807C47.3001 36.117 47.4274 36.0533 47.5547 35.9897C47.7033 35.9472 47.8518 35.9048 48.0216 35.9048C48.2975 35.9048 48.5521 35.9684 48.7431 36.0745C48.9341 36.2019 49.1038 36.3716 49.2099 36.6051C49.3373 36.3716 49.507 36.2019 49.7405 36.0745C49.9739 35.9472 50.1861 35.9048 50.4195 35.9048C50.7166 35.9048 50.95 35.9472 51.141 36.0533C51.332 36.1594 51.4805 36.2868 51.5866 36.4353C51.6927 36.5838 51.7776 36.7748 51.7988 36.9658C51.8413 37.1568 51.8625 37.369 51.8625 37.5812V39.7881H51.141V37.6661C51.141 37.5175 51.141 37.3902 51.1198 37.2417C51.0986 37.1144 51.0561 36.987 51.0137 36.8809C50.95 36.7748 50.8651 36.6899 50.759 36.6263C50.6529 36.5626 50.5044 36.5414 50.3346 36.5414C49.9951 36.5414 49.7404 36.6475 49.5919 36.8597C49.4434 37.0719 49.3585 37.3478 49.3585 37.6873V39.7669H48.637V37.7722C48.637 37.5812 48.637 37.4327 48.6158 37.2841C48.5945 37.1356 48.5521 37.0082 48.5097 36.9021C48.446 36.796 48.3823 36.7112 48.2762 36.6475C48.1701 36.5838 48.0216 36.5626 47.8518 36.5626C47.7245 36.5626 47.5972 36.5838 47.4699 36.6475C47.3425 36.6899 47.2364 36.7748 47.1516 36.8809C47.0667 36.987 46.9818 37.1144 46.9394 37.2629C46.8757 37.4114 46.8545 37.6024 46.8545 37.8146V39.7881H46.133V36.0109H46.1118Z" fill="white"/>
<path d="M53.4969 38.1752C53.4969 38.3449 53.5393 38.4935 53.603 38.6208C53.6666 38.7481 53.7728 38.8754 53.8789 38.9603C54.0062 39.0664 54.1335 39.1301 54.282 39.1938C54.4306 39.2574 54.6003 39.2786 54.7701 39.2786C55.0035 39.2786 55.1945 39.2362 55.3643 39.1301C55.534 39.024 55.6826 38.8967 55.8311 38.7269L56.3829 39.1513C55.9797 39.6606 55.4279 39.9365 54.7065 39.9365C54.4094 39.9365 54.1335 39.894 53.9001 39.7879C53.6667 39.6818 53.4544 39.5545 53.2847 39.3635C53.1149 39.1937 52.9876 38.9815 52.9027 38.7269C52.8178 38.4935 52.7754 38.2176 52.7754 37.9417C52.7754 37.6659 52.8178 37.39 52.9239 37.1566C53.03 36.9232 53.1574 36.711 53.3271 36.52C53.4969 36.3502 53.7091 36.2017 53.9425 36.0956C54.1759 35.9895 54.4518 35.947 54.7277 35.947C55.0672 35.947 55.3431 36.0107 55.5765 36.1168C55.8099 36.2441 56.0009 36.3927 56.1494 36.5836C56.298 36.7746 56.4041 36.9868 56.4677 37.2202C56.5314 37.4537 56.5738 37.7083 56.5738 37.9417V38.1964H53.4969V38.1752ZM55.7887 37.6022C55.7887 37.4325 55.7675 37.3051 55.7038 37.1566C55.6614 37.0293 55.5977 36.9019 55.4916 36.8171C55.4067 36.711 55.2794 36.6473 55.1521 36.5836C55.0248 36.52 54.855 36.4988 54.6852 36.4988C54.5155 36.4988 54.3457 36.5412 54.1972 36.6049C54.0486 36.6685 53.9213 36.7534 53.8152 36.8595C53.7091 36.9656 53.6242 37.0929 53.5818 37.2202C53.5181 37.3476 53.4969 37.4749 53.4969 37.6022H55.7887Z" fill="white"/>
<path d="M57.4228 36.0111H58.1443V36.6053H58.1655C58.2079 36.4992 58.2716 36.4143 58.3565 36.3295C58.4414 36.2446 58.5263 36.1809 58.6324 36.1173C58.7385 36.0536 58.8446 36.0112 58.9507 35.9687C59.0568 35.9263 59.1841 35.9263 59.3114 35.9263C59.4387 35.9263 59.5448 35.9475 59.6297 35.9687L59.5873 36.7539C59.5236 36.7326 59.46 36.7326 59.4175 36.7114C59.3539 36.7114 59.2902 36.6902 59.2477 36.6902C58.887 36.6902 58.6324 36.7963 58.4414 36.9873C58.2504 37.1783 58.1655 37.4966 58.1655 37.8998V39.8096H57.444V36.0111H57.4228Z" fill="white"/>
<path d="M62.7913 34.1431H64.786C65.1467 34.1431 65.4438 34.1855 65.6772 34.2916C65.9107 34.3977 66.1016 34.525 66.229 34.6736C66.3563 34.8221 66.4624 34.9919 66.5048 35.1829C66.5685 35.3739 66.5897 35.5648 66.5897 35.7346C66.5897 35.9044 66.5685 36.0953 66.5048 36.2863C66.4412 36.4773 66.3563 36.6471 66.229 36.7956C66.1016 36.9442 65.9107 37.0715 65.6772 37.1776C65.4438 37.2837 65.1467 37.3261 64.786 37.3261H63.5552V39.8301H62.7913V34.1431ZM63.5764 36.6259H64.595C64.7435 36.6259 64.8921 36.6046 65.0406 36.5834C65.1892 36.5622 65.3165 36.5198 65.4438 36.4561C65.5711 36.3924 65.656 36.3076 65.7197 36.1802C65.7833 36.0529 65.8258 35.9044 65.8258 35.7134C65.8258 35.5224 65.7833 35.3739 65.7197 35.2465C65.656 35.1192 65.5499 35.0343 65.4438 34.9707C65.3377 34.907 65.1892 34.8646 65.0406 34.8433C64.8921 34.8221 64.7435 34.8009 64.595 34.8009H63.5764V36.6259Z" fill="white"/>
<path d="M67.3752 36.0111H68.0967V36.6053H68.1179C68.1603 36.4992 68.224 36.4143 68.3089 36.3295C68.3938 36.2446 68.4786 36.1809 68.5847 36.1173C68.6908 36.0536 68.7969 36.0112 68.9031 35.9687C69.0092 35.9263 69.1365 35.9263 69.2638 35.9263C69.3911 35.9263 69.4972 35.9475 69.5821 35.9687L69.5397 36.7539C69.476 36.7326 69.4123 36.7326 69.3699 36.7114C69.3062 36.7114 69.2426 36.6902 69.2001 36.6902C68.8394 36.6902 68.5847 36.7963 68.3938 36.9873C68.2028 37.1783 68.1179 37.4966 68.1179 37.8998V39.8096H67.3964V36.0111H67.3752Z" fill="white"/>
<path d="M70.0065 37.921C70.0065 37.6451 70.0489 37.3905 70.155 37.1358C70.2611 36.9024 70.4097 36.6902 70.5794 36.4992C70.7704 36.3082 70.9826 36.1809 71.216 36.0748C71.4707 35.9687 71.7253 35.9263 72.0012 35.9263C72.2771 35.9263 72.5529 35.9687 72.7863 36.0748C73.041 36.1809 73.2532 36.3295 73.423 36.4992C73.6139 36.6902 73.7413 36.9024 73.8474 37.1358C73.9535 37.3693 73.9959 37.6451 73.9959 37.921C73.9959 38.1969 73.9535 38.4515 73.8474 38.7061C73.7413 38.9396 73.5927 39.1518 73.423 39.3428C73.232 39.5125 73.0198 39.6611 72.7863 39.7672C72.5317 39.8733 72.2771 39.9157 72.0012 39.9157C71.7253 39.9157 71.4495 39.8733 71.216 39.7672C70.9614 39.6611 70.7492 39.5125 70.5794 39.3428C70.3884 39.173 70.2611 38.9608 70.155 38.7061C70.0701 38.4515 70.0065 38.1969 70.0065 37.921ZM70.7916 37.921C70.7916 38.112 70.8128 38.2817 70.8765 38.4515C70.9402 38.6213 71.025 38.7486 71.1312 38.8759C71.2373 38.982 71.3646 39.0881 71.5343 39.1518C71.6829 39.2154 71.8526 39.2579 72.0648 39.2579C72.2558 39.2579 72.4256 39.2154 72.5954 39.1518C72.7651 39.0881 72.8712 39.0032 72.9986 38.8759C73.1047 38.7698 73.1895 38.6213 73.2532 38.4515C73.3169 38.2817 73.3381 38.112 73.3381 37.921C73.3381 37.73 73.3169 37.5602 73.2532 37.3905C73.1895 37.2207 73.1047 37.0934 72.9986 36.9661C72.8924 36.86 72.7651 36.7539 72.5954 36.6902C72.4256 36.6265 72.2558 36.5841 72.0648 36.5841C71.8739 36.5841 71.7041 36.6265 71.5343 36.6902C71.3858 36.7539 71.2585 36.8387 71.1312 36.9661C71.025 37.0722 70.9402 37.2207 70.8765 37.3905C70.8128 37.539 70.7916 37.73 70.7916 37.921Z" fill="white"/>
<path d="M77.0093 36.6259H75.9695V38.3448C75.9695 38.4509 75.9695 38.557 75.9695 38.6631C75.9695 38.7692 75.9907 38.854 76.0332 38.9389C76.0756 39.0238 76.118 39.0875 76.2029 39.1299C76.2666 39.1723 76.3727 39.2148 76.5212 39.2148C76.6061 39.2148 76.691 39.2148 76.7759 39.1936C76.8608 39.1724 76.9456 39.1511 77.0305 39.1087V39.7665C76.9456 39.809 76.8395 39.8514 76.691 39.8726C76.5637 39.8938 76.4576 39.8938 76.3727 39.8938C76.0968 39.8938 75.8846 39.8514 75.7361 39.7877C75.5875 39.7241 75.4814 39.618 75.3966 39.4907C75.3329 39.3633 75.2904 39.236 75.2692 39.0875C75.248 38.9389 75.248 38.7904 75.248 38.6206V36.6471H74.4204V36.0317H75.248V34.9707H75.9695V36.0317H77.0093V36.6259Z" fill="white"/>
<path d="M78.4731 38.1752C78.4731 38.3449 78.5155 38.4935 78.5792 38.6208C78.6428 38.7481 78.7489 38.8754 78.855 38.9603C78.9824 39.0664 79.1097 39.1301 79.2582 39.1938C79.4068 39.2574 79.5765 39.2786 79.7463 39.2786C79.9797 39.2786 80.1707 39.2362 80.3405 39.1301C80.5102 39.024 80.6588 38.8967 80.8073 38.7269L81.3591 39.1513C80.9559 39.6606 80.4041 39.9365 79.6826 39.9365C79.3856 39.9365 79.1097 39.894 78.8763 39.7879C78.6428 39.6818 78.4306 39.5545 78.2609 39.3635C78.0911 39.1937 77.9638 38.9815 77.8789 38.7269C77.794 38.4935 77.7516 38.2176 77.7516 37.9417C77.7516 37.6659 77.794 37.39 77.9001 37.1566C78.0062 36.9232 78.1336 36.711 78.3033 36.52C78.4731 36.3502 78.6853 36.2017 78.9187 36.0956C79.1521 35.9895 79.428 35.947 79.7039 35.947C80.0434 35.947 80.3193 36.0107 80.5527 36.1168C80.7861 36.2441 80.9771 36.3927 81.1256 36.5836C81.2742 36.7746 81.3803 36.9868 81.4439 37.2202C81.5076 37.4537 81.55 37.7083 81.55 37.9417V38.1964H78.4731V38.1752ZM80.7649 37.6022C80.7649 37.4325 80.7437 37.3051 80.68 37.1566C80.6376 37.0293 80.5739 36.9019 80.4678 36.8171C80.3829 36.711 80.2556 36.6473 80.1283 36.5836C80.0009 36.52 79.8312 36.4988 79.6614 36.4988C79.4917 36.4988 79.3219 36.5412 79.1734 36.6049C79.0248 36.6685 78.8975 36.7534 78.7914 36.8595C78.6853 36.9656 78.6004 37.0929 78.558 37.2202C78.4943 37.3476 78.4731 37.4749 78.4731 37.6022H80.7649Z" fill="white"/>
<path d="M85.1151 37.0295C84.9878 36.8809 84.8393 36.7748 84.6907 36.7112C84.5422 36.6475 84.3724 36.6051 84.1602 36.6051C83.9692 36.6051 83.7995 36.6475 83.6509 36.7112C83.5024 36.7748 83.3751 36.8809 83.2902 37.0082C83.1841 37.1356 83.1204 37.2841 83.0568 37.4327C83.0143 37.6024 82.9719 37.7722 82.9719 37.9419C82.9719 38.1117 82.9931 38.2815 83.0568 38.4512C83.1204 38.5998 83.2053 38.7483 83.3114 38.8544C83.4175 38.9818 83.5448 39.0666 83.6934 39.1303C83.8419 39.194 84.0117 39.2364 84.2027 39.2364C84.4149 39.2364 84.5846 39.194 84.7332 39.1303C84.8817 39.0666 85.009 38.9605 85.1364 38.812L85.6457 39.3213C85.4547 39.5335 85.2425 39.682 84.9878 39.7669C84.7332 39.8518 84.4785 39.8942 84.2027 39.8942C83.9056 39.8942 83.6297 39.8518 83.3963 39.7457C83.1629 39.6396 82.9507 39.5123 82.7597 39.3425C82.5687 39.1727 82.4414 38.9605 82.3565 38.7059C82.2504 38.4725 82.2079 38.1966 82.2079 37.8995C82.2079 37.6024 82.2504 37.3266 82.3565 37.0931C82.4626 36.8385 82.5899 36.6263 82.7597 36.4565C82.9294 36.2868 83.1416 36.1382 83.3963 36.0533C83.6297 35.9472 83.9056 35.9048 84.2027 35.9048C84.4785 35.9048 84.7544 35.9472 85.009 36.0533C85.2637 36.1594 85.4759 36.308 85.6669 36.499L85.1151 37.0295Z" fill="white"/>
<path d="M88.2984 36.6259H87.2586V38.3448C87.2586 38.4509 87.2586 38.557 87.2586 38.6631C87.2586 38.7692 87.2798 38.854 87.3222 38.9389C87.3647 39.0238 87.4071 39.0875 87.492 39.1299C87.5556 39.1723 87.6618 39.2148 87.8103 39.2148C87.8952 39.2148 87.9801 39.2148 88.0649 39.1936C88.1498 39.1724 88.2347 39.1511 88.3196 39.1087V39.7665C88.2347 39.809 88.1286 39.8514 87.9801 39.8726C87.8527 39.8938 87.7466 39.8938 87.6617 39.8938C87.3859 39.8938 87.1737 39.8514 87.0251 39.7877C86.8766 39.7241 86.7705 39.618 86.6856 39.4907C86.622 39.3633 86.5795 39.236 86.5583 39.0875C86.5371 38.9389 86.5371 38.7904 86.5371 38.6206V36.6471H85.7095V36.0317H86.5371V34.9707H87.2586V36.0317H88.2984V36.6259Z" fill="white"/>
<path d="M89.1259 34.6526C89.1259 34.504 89.1683 34.3767 89.2744 34.2706C89.3805 34.1645 89.5078 34.1221 89.6564 34.1221C89.8049 34.1221 89.9322 34.1645 90.0383 34.2706C90.1444 34.3767 90.1869 34.504 90.1869 34.6526C90.1869 34.8011 90.1444 34.9284 90.0383 35.0345C89.9322 35.1407 89.8049 35.1831 89.6564 35.1831C89.5078 35.1831 89.3805 35.1407 89.2744 35.0345C89.1683 34.9072 89.1259 34.8011 89.1259 34.6526ZM89.2956 36.0107H90.0171V39.8091H89.2956V36.0107Z" fill="white"/>
<path d="M90.972 37.921C90.972 37.6451 91.0145 37.3905 91.1206 37.1358C91.2267 36.9024 91.3752 36.6902 91.545 36.4992C91.736 36.3082 91.9482 36.1809 92.1816 36.0748C92.4363 35.9687 92.6909 35.9263 92.9668 35.9263C93.2426 35.9263 93.5185 35.9687 93.7519 36.0748C94.0066 36.1809 94.2188 36.3295 94.3885 36.4992C94.5795 36.6902 94.7068 36.9024 94.8129 37.1358C94.919 37.3693 94.9615 37.6451 94.9615 37.921C94.9615 38.1969 94.919 38.4515 94.8129 38.7061C94.7068 38.9396 94.5583 39.1518 94.3885 39.3428C94.1976 39.5125 93.9853 39.6611 93.7519 39.7672C93.4973 39.8733 93.2426 39.9157 92.9668 39.9157C92.6909 39.9157 92.415 39.8733 92.1816 39.7672C91.927 39.6611 91.7148 39.5125 91.545 39.3428C91.354 39.173 91.2267 38.9608 91.1206 38.7061C91.0357 38.4515 90.972 38.1969 90.972 37.921ZM91.7572 37.921C91.7572 38.112 91.7784 38.2817 91.8421 38.4515C91.9057 38.6213 91.9906 38.7486 92.0967 38.8759C92.2028 38.982 92.3302 39.0881 92.4999 39.1518C92.6485 39.2154 92.8182 39.2579 93.0304 39.2579C93.2214 39.2579 93.3912 39.2154 93.5609 39.1518C93.7307 39.0881 93.8368 39.0032 93.9641 38.8759C94.0702 38.7698 94.1551 38.6213 94.2188 38.4515C94.2824 38.2817 94.3037 38.112 94.3037 37.921C94.3037 37.73 94.2824 37.5602 94.2188 37.3905C94.1551 37.2207 94.0702 37.0934 93.9641 36.9661C93.858 36.86 93.7307 36.7539 93.5609 36.6902C93.3912 36.6265 93.2214 36.5841 93.0304 36.5841C92.8394 36.5841 92.6697 36.6265 92.4999 36.6902C92.3514 36.7539 92.2241 36.8387 92.0967 36.9661C91.9906 37.0722 91.9057 37.2207 91.8421 37.3905C91.7784 37.539 91.7572 37.73 91.7572 37.921Z" fill="white"/>
<path d="M95.9373 36.0111H96.6588V36.6053H96.68C96.7649 36.3931 96.9346 36.2446 97.1468 36.1173C97.3802 35.9899 97.6349 35.9263 97.932 35.9263C98.123 35.9263 98.2927 35.9475 98.4625 36.0111C98.6323 36.0748 98.7808 36.1597 98.9081 36.2658C99.0354 36.3931 99.1415 36.5417 99.2052 36.7114C99.2901 36.9024 99.3113 37.1146 99.3113 37.3693V39.8096H98.5898V37.5602C98.5898 37.3905 98.5686 37.2419 98.5262 37.1146C98.4837 36.9873 98.42 36.8812 98.3352 36.8175C98.2503 36.7539 98.1654 36.6902 98.0593 36.6478C97.9532 36.6053 97.8471 36.6053 97.741 36.6053C97.5924 36.6053 97.4439 36.6265 97.3166 36.669C97.1893 36.7114 97.0832 36.7963 96.9771 36.9024C96.871 37.0085 96.8073 37.1358 96.7436 37.3056C96.68 37.4754 96.6588 37.6663 96.6588 37.8785V39.8308H95.9373V36.0111Z" fill="white"/>
<path d="M19.6074 34.2913H0.402954V36.5618H19.6074V34.2913Z" fill="#93BCE4"/>
<path d="M20.0321 37.5598H0V39.8304H20.0321V37.5598Z" fill="#93BCE4"/>
</svg>
