<svg width="119" height="118" viewBox="0 0 119 118" fill="none" xmlns="http://www.w3.org/2000/svg">
<g filter="url(#filter0_d_11_270)">
<path d="M51.377 80C56.9786 80 61.4091 79.5035 65.017 78.4901C65.5038 78.3534 65.785 77.8644 65.7485 77.3601C65.7381 77.216 65.7324 77.0706 65.7324 76.9238C65.7324 75.2819 66.2903 73.7705 67.2229 72.5611C67.5658 72.1165 67.5658 71.4773 67.2229 71.0326C66.2903 69.8232 65.7324 68.3118 65.7324 66.6699C65.7324 65.028 66.2903 63.5166 67.2229 62.3072C67.5658 61.8626 67.5658 61.2234 67.2229 60.7787C66.2903 59.5693 65.7324 58.0579 65.7324 56.416C65.7324 54.7741 66.2903 53.2627 67.2229 52.0533C67.5658 51.6087 67.5658 50.9694 67.2229 50.5248C66.2903 49.3154 65.7324 47.804 65.7324 46.1621C65.7324 44.2257 66.5124 42.4767 67.7669 41.1882C68.2069 40.7364 68.2521 39.9918 67.7695 39.5859C67.1045 39.0266 66.4177 38.4999 65.7117 38.0065C65.2271 37.6678 65.129 36.9929 65.3775 36.4564C65.5999 35.9763 65.7324 35.4497 65.7324 34.8828C65.7324 32.6173 63.8963 30.7812 61.6309 30.7812H41.123C38.8576 30.7812 37.0215 32.6173 37.0215 34.8828C37.0215 35.4481 37.1534 35.973 37.3747 36.4517C37.6223 36.9877 37.5238 37.6611 37.0405 38.0002C29.5814 43.235 24.5801 52.1798 24.5801 61.543C24.5801 78.0875 39.9316 80 51.377 80ZM51.3551 60.093C47.9622 60.093 45.2027 57.3335 45.2027 53.9407C45.2027 51.5127 46.6247 49.4289 48.6733 48.4323C49.0547 48.2467 49.3262 47.8758 49.3262 47.4516V45.1367C49.3262 44.0034 50.2437 43.0859 51.377 43.0859C52.5102 43.0859 53.4277 44.0034 53.4277 45.1367V47.471C53.4277 47.8925 53.6958 48.2617 54.0736 48.4486C56.1026 49.4522 57.5074 51.5274 57.5074 53.9407C57.5074 55.0745 56.5899 55.9914 55.4566 55.9914C54.3228 55.9914 53.4058 55.0745 53.4058 53.9407C53.4058 52.809 52.4862 51.8899 51.3551 51.8899C50.2234 51.8899 49.3043 52.809 49.3043 53.9407C49.3043 55.0723 50.2234 55.9914 51.3551 55.9914C54.7474 55.9914 57.5074 58.7514 57.5074 62.1438C57.5074 64.5571 56.1026 66.6323 54.0734 67.6364C53.6957 67.8233 53.4277 68.1924 53.4277 68.6138V69.7461C53.4277 70.8794 52.5102 71.7969 51.377 71.7969C50.2437 71.7969 49.3262 70.8794 49.3262 69.7461V68.633C49.3262 68.2088 49.0547 67.8377 48.6731 67.6522C46.6246 66.6559 45.2027 64.5717 45.2027 62.1438C45.2027 61.0105 46.1197 60.093 47.2535 60.093C48.3868 60.093 49.3043 61.0105 49.3043 62.1438C49.3043 63.2755 50.2234 64.1946 51.3551 64.1946C52.4862 64.1946 53.4058 63.2755 53.4058 62.1438C53.4058 61.0121 52.4862 60.093 51.3551 60.093Z" fill="url(#paint0_linear_11_270)"/>
<path d="M91.5039 73.8477H72.9102C71.2113 73.8477 69.834 75.225 69.834 76.9238C69.834 78.6227 71.2113 80 72.9102 80H91.5039C93.2027 80 94.5801 78.6227 94.5801 76.9238C94.5801 75.225 93.2027 73.8477 91.5039 73.8477Z" fill="url(#paint1_linear_11_270)"/>
<path d="M91.5039 63.5938H72.9102C71.2113 63.5938 69.834 64.9711 69.834 66.6699C69.834 68.3688 71.2113 69.7461 72.9102 69.7461H91.5039C93.2027 69.7461 94.5801 68.3688 94.5801 66.6699C94.5801 64.9711 93.2027 63.5938 91.5039 63.5938Z" fill="url(#paint2_linear_11_270)"/>
<path d="M91.5039 53.3398H72.9102C71.2113 53.3398 69.834 54.7172 69.834 56.416C69.834 58.1149 71.2113 59.4922 72.9102 59.4922H91.5039C93.2027 59.4922 94.5801 58.1149 94.5801 56.416C94.5801 54.7172 93.2027 53.3398 91.5039 53.3398Z" fill="url(#paint3_linear_11_270)"/>
<path d="M91.5039 43.0859H72.9102C71.2113 43.0859 69.834 44.4633 69.834 46.1621C69.834 47.8609 71.2113 49.2383 72.9102 49.2383H91.5039C93.2027 49.2383 94.5801 47.8609 94.5801 46.1621C94.5801 44.4633 93.2027 43.0859 91.5039 43.0859Z" fill="url(#paint4_linear_11_270)"/>
<path d="M57.8567 14.1016C57.434 14.1016 57.0639 13.8319 56.8777 13.4524C55.8773 11.4134 53.7979 10 51.377 10C48.9532 10 46.852 11.4091 45.8491 13.4512C45.6625 13.8311 45.2922 14.1016 44.8689 14.1016H39.0723C38.4133 14.1016 37.7943 14.4177 37.4082 14.9529C37.0237 15.4874 36.9174 16.1764 37.1278 16.8012L40.1053 25.988C40.2389 26.4004 40.6231 26.6797 41.0566 26.6797H61.6979C62.1314 26.6797 62.5156 26.4004 62.6492 25.988L65.6262 16.8012C65.8366 16.1764 65.7303 15.4874 65.3458 14.9529C64.9597 14.4177 64.3407 14.1016 63.6817 14.1016H57.8567Z" fill="url(#paint5_linear_11_270)"/>
</g>
<defs>
<filter id="filter0_d_11_270" x="0.580078" y="0" width="118" height="118" filterUnits="userSpaceOnUse" color-interpolation-filters="sRGB">
<feFlood flood-opacity="0" result="BackgroundImageFix"/>
<feColorMatrix in="SourceAlpha" type="matrix" values="0 0 0 0 0 0 0 0 0 0 0 0 0 0 0 0 0 0 127 0" result="hardAlpha"/>
<feOffset dy="14"/>
<feGaussianBlur stdDeviation="12"/>
<feComposite in2="hardAlpha" operator="out"/>
<feColorMatrix type="matrix" values="0 0 0 0 0.513726 0 0 0 0 0.67451 0 0 0 0 0.847059 0 0 0 0.36 0"/>
<feBlend mode="normal" in2="BackgroundImageFix" result="effect1_dropShadow_11_270"/>
<feBlend mode="normal" in="SourceGraphic" in2="effect1_dropShadow_11_270" result="shape"/>
</filter>
<linearGradient id="paint0_linear_11_270" x1="-25.8826" y1="-150.395" x2="103.668" y2="-141.634" gradientUnits="userSpaceOnUse">
<stop stop-color="#0B4E8C"/>
<stop offset="1" stop-color="#83ACD8"/>
</linearGradient>
<linearGradient id="paint1_linear_11_270" x1="41.5209" y1="51.2007" x2="108.38" y2="71.495" gradientUnits="userSpaceOnUse">
<stop stop-color="#0B4E8C"/>
<stop offset="1" stop-color="#83ACD8"/>
</linearGradient>
<linearGradient id="paint2_linear_11_270" x1="41.5209" y1="40.9468" x2="108.38" y2="61.2411" gradientUnits="userSpaceOnUse">
<stop stop-color="#0B4E8C"/>
<stop offset="1" stop-color="#83ACD8"/>
</linearGradient>
<linearGradient id="paint3_linear_11_270" x1="41.5209" y1="30.6929" x2="108.38" y2="50.9872" gradientUnits="userSpaceOnUse">
<stop stop-color="#0B4E8C"/>
<stop offset="1" stop-color="#83ACD8"/>
</linearGradient>
<linearGradient id="paint4_linear_11_270" x1="41.5209" y1="20.439" x2="108.38" y2="40.7333" gradientUnits="userSpaceOnUse">
<stop stop-color="#0B4E8C"/>
<stop offset="1" stop-color="#83ACD8"/>
</linearGradient>
<linearGradient id="paint5_linear_11_270" x1="4.17196" y1="-51.3985" x2="87.4847" y2="-40.5761" gradientUnits="userSpaceOnUse">
<stop stop-color="#0B4E8C"/>
<stop offset="1" stop-color="#83ACD8"/>
</linearGradient>
</defs>
</svg>
