<svg width="119" height="118" viewBox="0 0 119 118" fill="none" xmlns="http://www.w3.org/2000/svg">
<g filter="url(#filter0_d_11_280)">
<path d="M59.5801 49.1016C60.7127 49.1016 61.6309 48.1834 61.6309 47.0508C61.6309 45.9182 60.7127 45 59.5801 45C58.4475 45 57.5293 45.9182 57.5293 47.0508C57.5293 48.1834 58.4475 49.1016 59.5801 49.1016Z" fill="url(#paint0_linear_11_280)"/>
<path d="M59.5801 10C40.3085 10 24.5801 25.7294 24.5801 45C24.5801 64.272 40.3094 80 59.5801 80C78.852 80 94.5801 64.2706 94.5801 45C94.5801 25.7284 78.8507 10 59.5801 10ZM59.5801 18.3398C72.4836 18.3398 83.2751 27.5546 85.7205 39.7493C85.8411 40.3507 85.371 40.8984 84.7577 40.8984H78.8127C74.3035 40.8984 70.0192 39.089 67.0586 35.934C63.0117 31.6211 56.1488 31.6197 52.1016 35.9339C49.1409 39.089 44.8567 40.8984 40.3473 40.8984H34.4025C33.7891 40.8984 33.3191 40.3507 33.4397 39.7493C35.8851 27.5546 46.6765 18.3398 59.5801 18.3398ZM59.5801 53.2031C56.1878 53.2031 53.4277 50.4433 53.4277 47.0508C53.4277 43.6582 56.1878 40.8984 59.5801 40.8984C62.9726 40.8984 65.7324 43.6582 65.7324 47.0508C65.7324 50.4433 62.9726 53.2031 59.5801 53.2031ZM35.1381 55.6446C34.9168 55.1383 35.1715 54.5548 35.6884 54.3599C37.5797 53.6468 39.1167 53.2031 41.123 53.2031C48.5991 53.2031 54.4135 59.8646 53.2888 67.3498C53.2886 67.3511 53.2874 67.3521 53.286 67.3521C53.2847 67.3521 53.2835 67.3532 53.2833 67.3545C53.1577 68.2133 52.9412 69.0521 52.6406 69.8584C52.4678 70.3218 51.9597 70.5554 51.4886 70.405C44.1559 68.0642 38.1921 62.6302 35.1381 55.6446ZM67.673 70.4045C67.202 70.5549 66.6939 70.3214 66.5208 69.8582C66.2138 69.0366 66.0001 68.1977 65.8769 67.3545C65.8767 67.3532 65.8755 67.3521 65.8741 67.3521C65.8728 67.3521 65.8716 67.3511 65.8714 67.3498C64.5608 58.6275 72.6129 51.4312 80.9592 53.5523C81.6413 53.7257 82.4562 53.9868 83.4706 54.3631C83.9886 54.5553 84.2432 55.1385 84.0219 55.6447C80.9682 62.6298 75.005 68.0635 67.673 70.4045Z" fill="url(#paint1_linear_11_280)"/>
</g>
<defs>
<filter id="filter0_d_11_280" x="0.580078" y="0" width="118" height="118" filterUnits="userSpaceOnUse" color-interpolation-filters="sRGB">
<feFlood flood-opacity="0" result="BackgroundImageFix"/>
<feColorMatrix in="SourceAlpha" type="matrix" values="0 0 0 0 0 0 0 0 0 0 0 0 0 0 0 0 0 0 127 0" result="hardAlpha"/>
<feOffset dy="14"/>
<feGaussianBlur stdDeviation="12"/>
<feComposite in2="hardAlpha" operator="out"/>
<feColorMatrix type="matrix" values="0 0 0 0 0.513726 0 0 0 0 0.67451 0 0 0 0 0.847059 0 0 0 0.36 0"/>
<feBlend mode="normal" in2="BackgroundImageFix" result="effect1_dropShadow_11_280"/>
<feBlend mode="normal" in="SourceGraphic" in2="effect1_dropShadow_11_280" result="shape"/>
</filter>
<linearGradient id="paint0_linear_11_280" x1="52.8365" y1="29.902" x2="64.8706" y2="30.8102" gradientUnits="userSpaceOnUse">
<stop stop-color="#0B4E8C"/>
<stop offset="1" stop-color="#83ACD8"/>
</linearGradient>
<linearGradient id="paint1_linear_11_280" x1="-55.51" y1="-247.672" x2="149.872" y2="-232.173" gradientUnits="userSpaceOnUse">
<stop stop-color="#0B4E8C"/>
<stop offset="1" stop-color="#83ACD8"/>
</linearGradient>
</defs>
</svg>
