<svg width="114" height="114" viewBox="0 0 114 114" fill="none" xmlns="http://www.w3.org/2000/svg">
<g filter="url(#filter0_d_11_262)">
<path d="M85.3862 41.436C85.3862 41.4349 85.3846 41.4347 85.3844 41.4358C85.237 42.1122 85.0391 42.7766 84.7924 43.4234C84.7071 43.6424 84.5576 43.8305 84.3636 43.9631C84.1696 44.0957 83.9401 44.1666 83.7051 44.1666C83.5602 44.1671 83.4165 44.1401 83.2816 44.0872C83.1388 44.0316 83.0083 43.9485 82.8976 43.8424C82.787 43.7364 82.6983 43.6096 82.6367 43.4693C82.575 43.329 82.5416 43.178 82.5384 43.0247C82.5351 42.8715 82.5621 42.7192 82.6177 42.5764C82.976 41.6574 83.2155 40.6965 83.3306 39.7169C83.3306 39.7029 83.3306 39.6901 83.3306 39.6761C83.3852 39.2305 83.4129 38.7821 83.4134 38.3332C83.4153 35.868 82.6338 33.4659 81.1816 31.4738C80.1231 30.0216 78.748 28.842 77.1711 28.0177C76.5827 27.7101 76.0245 28.3869 76.3061 28.9882C76.4251 29.2676 76.4306 29.5823 76.3213 29.8656C76.212 30.149 75.9965 30.3785 75.7207 30.5055C75.4449 30.6324 75.1304 30.6469 74.8441 30.5457C74.5578 30.4445 74.3222 30.2357 74.1874 29.9636C73.1681 27.6923 71.4402 25.8125 69.2626 24.6058C67.2177 23.4726 64.8797 22.9904 62.56 23.2173C62.2727 23.2454 62.018 23.4088 61.8595 23.65L60.8956 25.1176C60.4589 25.7826 60.9359 26.6666 61.7315 26.6666H66.8397C67.3372 26.6722 67.8223 26.8219 68.2365 27.0975C68.6507 27.373 68.9762 27.7626 69.1736 28.2192C69.3711 28.6759 69.432 29.1799 69.3491 29.6704C69.2662 30.1609 69.043 30.6169 68.7064 30.9832C65.4794 34.4086 52.0872 49.2416 48.2337 52.7159C46.5806 54.2069 43.6312 52.9201 44.6264 50.5552L50.1406 37.3861C50.4165 36.7272 49.9325 35.9999 49.2182 35.9999H44.0967C43.5812 35.9945 43.0746 35.8642 42.6204 35.6203C42.1662 35.3763 41.7778 35.026 41.4886 34.5991C41.1994 34.1723 41.0179 33.6817 40.9597 33.1694C40.9015 32.6572 40.9683 32.1384 41.1544 31.6576L44.0037 24.4541C44.2215 23.9036 43.9148 23.2788 43.3266 23.2112C43.079 23.1828 42.8298 23.1678 42.5801 23.1666C41.515 23.1713 40.465 23.4191 39.5101 23.891C38.9873 24.1493 38.5006 24.4711 38.0604 24.8478C37.5343 25.2979 37.7886 26.1046 38.4151 26.3994C38.6927 26.5331 38.9062 26.7711 39.0089 27.0616C39.1116 27.3521 39.0953 27.6714 38.9634 27.9499C38.8223 28.2221 38.5832 28.4306 38.2943 28.5333C38.0054 28.6359 37.6883 28.6251 37.4071 28.5029C36.4699 28.0642 35.4482 27.8356 34.4134 27.8332C32.8599 27.8351 31.3512 28.3537 30.1248 29.3074C29.4098 29.8635 28.8144 30.549 28.366 31.3224C27.9597 32.0233 28.6984 32.7328 29.4989 32.6071C29.5266 32.6027 29.5544 32.5985 29.5822 32.5944C29.734 32.5728 29.8885 32.5813 30.037 32.6194C30.1854 32.6575 30.3249 32.7245 30.4475 32.8165C30.5701 32.9086 30.6734 33.0238 30.7514 33.1558C30.8294 33.2877 30.8807 33.4337 30.9023 33.5855C30.9239 33.7372 30.9154 33.8918 30.8773 34.0402C30.8392 34.1887 30.7722 34.3282 30.6802 34.4508C30.5881 34.5734 30.4729 34.6766 30.3409 34.7546C30.209 34.8327 30.063 34.884 29.9112 34.9056C28.8366 35.0597 27.813 35.4633 26.9222 36.0839C25.9375 36.7995 25.1536 37.7566 24.646 38.863C24.1384 39.9694 23.9241 41.1879 24.0238 42.4011C24.1236 43.6143 24.534 44.7814 25.2155 45.79C25.897 46.7986 26.8267 47.6149 27.9151 48.1601C28.1945 48.2931 28.4096 48.5317 28.5131 48.8234C28.6165 49.115 28.5999 49.4358 28.4669 49.7152C28.3338 49.9946 28.0952 50.2097 27.8036 50.3132C27.5119 50.4167 27.1911 50.4001 26.9117 50.2671C26.4716 50.0541 25.9616 50.4704 26.1924 50.9014C26.862 52.1516 27.8109 53.2393 28.9733 54.0753C30.5584 55.2153 32.4609 55.8301 34.4134 55.8332C34.452 55.8332 34.4821 55.7997 34.4782 55.7613C34.4156 55.1414 34.4021 54.5175 34.4379 53.8954C34.4463 53.7418 34.4853 53.5915 34.5526 53.4532C34.6198 53.315 34.714 53.1915 34.8297 53.0901C34.9453 52.9887 35.08 52.9115 35.2259 52.8628C35.3718 52.8142 35.5259 52.7952 35.6792 52.8069C35.8322 52.8168 35.9818 52.8568 36.1193 52.9246C36.2569 52.9924 36.3797 53.0866 36.4808 53.2019C36.5819 53.3172 36.6593 53.4513 36.7085 53.5965C36.7577 53.7417 36.7779 53.8952 36.7677 54.0482C36.6286 56.0598 37.1457 58.0623 38.2414 59.755C39.3371 61.4477 40.9522 62.7395 42.8444 63.4363C44.7365 64.1331 46.8037 64.1974 48.7355 63.6196C50.3261 63.1438 51.7544 62.2538 52.8785 61.0491C53.2719 60.6276 53.1456 59.9716 52.6819 59.6289C52.5737 59.549 52.4671 59.4676 52.3626 59.3846C52.1287 59.191 51.9795 58.9138 51.9467 58.612C51.9139 58.3102 52.0001 58.0075 52.1869 57.7681C52.3736 57.5288 52.6464 57.3717 52.9471 57.3302C53.2479 57.2887 53.5529 57.3661 53.7976 57.5459C55.4138 58.7647 57.2722 59.6234 59.2479 60.0642C61.2236 60.505 63.2707 60.5177 65.2518 60.1015C67.2328 59.6853 69.1017 58.8497 70.7329 57.6511C72.1908 56.5798 73.4286 55.2407 74.3813 53.7073C74.5884 53.3739 74.5553 52.9517 74.345 52.6203C73.8958 51.9123 73.5439 51.1459 73.2996 50.3417C73.2139 50.0459 73.2487 49.7283 73.3964 49.458C73.544 49.1878 73.7925 48.9868 74.0877 48.8991C74.3829 48.8113 74.7008 48.8438 74.9721 48.9895C75.2434 49.1352 75.4462 49.3822 75.5361 49.6767C75.8649 50.7903 76.4655 51.8046 77.2839 52.6283C78.1023 53.452 79.1128 54.0591 80.2242 54.3951C81.3357 54.731 82.5133 54.7852 83.6509 54.5527C84.7885 54.3203 85.8504 53.8085 86.741 53.0635C87.6316 52.3185 88.3229 51.3636 88.7525 50.2849C89.1822 49.2062 89.3369 48.0376 89.2025 46.8843C89.0681 45.731 88.6489 44.6292 87.9827 43.6782C87.3167 42.7274 86.4245 41.9571 85.3867 41.4368C85.3864 41.4367 85.3862 41.4363 85.3862 41.436Z" fill="url(#paint0_linear_11_262)"/>
<path d="M60.4628 21.5333L60.4838 21.5029L65.2134 14.2999C65.4708 13.917 65.6178 13.4706 65.6384 13.0096C65.659 12.5487 65.5523 12.091 65.3301 11.6866C65.1099 11.2736 64.7805 10.929 64.3779 10.6904C63.9753 10.4518 63.5149 10.3282 63.0469 10.3333H53.8303C53.3208 10.3312 52.8225 10.4833 52.4011 10.7696C51.9796 11.0559 51.6547 11.463 51.4689 11.9374L43.3186 32.5303C43.2665 32.6534 43.246 32.7875 43.2588 32.9205C43.2717 33.0535 43.3175 33.1812 43.3921 33.2921C43.4689 33.4073 43.573 33.5018 43.6951 33.5671C43.8172 33.6325 43.9536 33.6666 44.0921 33.6666H51.1539C51.4911 33.6648 51.8235 33.7468 52.1211 33.9053C52.4187 34.0638 52.6723 34.2938 52.859 34.5746C53.0457 34.8553 53.1598 35.1781 53.1908 35.5139C53.2219 35.8496 53.169 36.1879 53.0369 36.4981L49.3519 45.2983C48.922 46.325 50.2389 47.1805 51.0022 46.3702L67.0066 29.3814C67.0395 29.352 67.0621 29.3127 67.0709 29.2694C67.0797 29.2261 67.0744 29.1811 67.0556 29.1411C67.039 29.0979 67.0092 29.061 66.9705 29.0357C66.9317 29.0103 66.886 28.9978 66.8398 28.9999H59.4361C59.0606 29.0015 58.6917 28.9019 58.368 28.7116C58.0444 28.5213 57.778 28.2472 57.5969 27.9183C57.4158 27.5894 57.3266 27.2178 57.3388 26.8425C57.3511 26.4673 57.4642 26.1022 57.6663 25.7858L60.4628 21.5333Z" fill="url(#paint1_linear_11_262)"/>
<path d="M82.2468 56.9999C80.4972 56.9933 78.7922 56.4985 77.3192 55.5822C76.8055 55.2625 76.1106 55.3826 75.7618 55.8769C74.4905 57.6783 72.8672 59.2086 70.9859 60.3731C69.2804 61.4287 67.4003 62.1604 65.4402 62.5371C64.6781 62.6835 64.2842 63.5694 64.8301 64.1209C66.4399 65.7474 68.5286 66.8428 70.8134 67.2304C76.3656 68.3247 84.5801 65.5061 84.5801 58.7499C84.5789 58.3892 84.5495 58.0295 84.4923 57.6743C84.4089 57.1558 83.8859 56.8632 83.3648 56.9283C82.9942 56.9746 82.6208 56.9985 82.2468 56.9999Z" fill="url(#paint2_linear_11_262)"/>
<path d="M61.2778 63.2423C61.1067 62.9442 60.8053 62.7422 60.4639 62.7019C59.0624 62.5363 57.6884 62.1914 56.3756 61.6757C55.9323 61.5016 55.4248 61.639 55.1206 62.0055C54.9429 62.2196 54.7576 62.4273 54.565 62.6281C54.3698 62.8316 54.25 63.1038 54.2942 63.3822C54.4122 64.1254 54.7676 64.8152 55.3132 65.3448C55.9653 65.9777 56.838 66.3322 57.7467 66.3333C58.2621 66.3222 58.7738 66.4226 59.2468 66.6276C59.7198 66.8326 60.1429 67.1373 60.4872 67.5209L67.2352 75.2501C67.4052 75.4328 67.6256 75.5609 67.8685 75.618C68.1115 75.6751 68.3659 75.6586 68.5994 75.5707C68.833 75.4827 69.0351 75.3273 69.18 75.1242C69.325 74.921 69.4062 74.6794 69.4134 74.4299V70.0754C69.4134 69.6099 69.0909 69.21 68.6448 69.0769C67.1439 68.6291 65.7367 67.9061 64.496 66.9427C63.1912 65.9295 62.0985 64.672 61.2778 63.2423Z" fill="url(#paint3_linear_11_262)"/>
</g>
<defs>
<filter id="filter0_d_11_262" x="0" y="0.33313" width="113.25" height="113.318" filterUnits="userSpaceOnUse" color-interpolation-filters="sRGB">
<feFlood flood-opacity="0" result="BackgroundImageFix"/>
<feColorMatrix in="SourceAlpha" type="matrix" values="0 0 0 0 0 0 0 0 0 0 0 0 0 0 0 0 0 0 127 0" result="hardAlpha"/>
<feOffset dy="14"/>
<feGaussianBlur stdDeviation="12"/>
<feComposite in2="hardAlpha" operator="out"/>
<feColorMatrix type="matrix" values="0 0 0 0 0.513726 0 0 0 0 0.67451 0 0 0 0 0.847059 0 0 0 0.36 0"/>
<feBlend mode="normal" in2="BackgroundImageFix" result="effect1_dropShadow_11_262"/>
<feBlend mode="normal" in="SourceGraphic" in2="effect1_dropShadow_11_262" result="shape"/>
</filter>
<linearGradient id="paint0_linear_11_262" x1="-50.6549" y1="-127.199" x2="139.121" y2="-104.323" gradientUnits="userSpaceOnUse">
<stop stop-color="#0B4E8C"/>
<stop offset="1" stop-color="#83ACD8"/>
</linearGradient>
<linearGradient id="paint1_linear_11_262" x1="16.0017" y1="-137.086" x2="86.1466" y2="-133.938" gradientUnits="userSpaceOnUse">
<stop stop-color="#0B4E8C"/>
<stop offset="1" stop-color="#83ACD8"/>
</linearGradient>
<linearGradient id="paint2_linear_11_262" x1="39.8032" y1="8.76454" x2="100.466" y2="16.389" gradientUnits="userSpaceOnUse">
<stop stop-color="#0B4E8C"/>
<stop offset="1" stop-color="#83ACD8"/>
</linearGradient>
<linearGradient id="paint3_linear_11_262" x1="36.9064" y1="8.74105" x2="81.3572" y2="12.299" gradientUnits="userSpaceOnUse">
<stop stop-color="#0B4E8C"/>
<stop offset="1" stop-color="#83ACD8"/>
</linearGradient>
</defs>
</svg>
