<svg width="168" height="168" viewBox="0 0 168 168" fill="none" xmlns="http://www.w3.org/2000/svg">
<g filter="url(#filter0_d_11_175)">
<path d="M144 70C144 65.4768 140.32 61.7969 135.797 61.7969C135.21 61.7969 134.916 61.0871 135.331 60.672L137.006 58.9971C137.646 58.3566 137.646 57.3181 137.006 56.6777L134.608 54.2798C133.827 53.4987 132.561 53.4988 131.779 54.2798L124.849 61.2111C124.474 61.5861 123.965 61.7969 123.434 61.7969H113.626C112.737 61.7969 111.962 61.2082 111.669 60.3693C111.296 59.3008 110.863 58.2603 110.374 57.2519C109.985 56.4511 110.116 55.4845 110.746 54.8551L117.685 47.9163C118.06 47.5413 118.568 47.3305 119.099 47.3305H128.901C130.006 47.3305 130.901 46.4351 130.901 45.3305V41.9393C130.901 41.0336 130.167 40.2993 129.261 40.2993H126.892C126.305 40.2993 126.011 39.5896 126.426 39.1745C129.625 35.9762 129.625 30.772 126.426 27.5737C123.228 24.3754 118.024 24.3749 114.825 27.5737C114.41 27.9888 113.7 27.6948 113.7 27.1077V24.7391C113.7 23.8333 112.966 23.099 112.06 23.099H108.669C107.565 23.099 106.669 23.9944 106.669 25.099V34.9015C106.669 35.4319 106.459 35.9406 106.083 36.3157L99.1449 43.2542C98.5155 43.8836 97.5489 44.0148 96.7481 43.6262C95.7397 43.1369 94.6992 42.7039 93.6308 42.331C92.7918 42.0382 92.2031 41.2629 92.2031 40.3744V30.5658C92.2031 30.0354 92.4138 29.5267 92.7889 29.1516L99.72 22.2205C100.501 21.4395 100.501 20.1732 99.72 19.3921L97.3221 16.9942C96.6816 16.3537 95.6432 16.3537 95.0028 16.9942L93.3279 18.669C92.9128 19.0841 92.2031 18.7901 92.2031 18.2031C92.2031 13.6799 88.5232 10 84 10C79.4768 10 75.7969 13.6799 75.7969 18.2031C75.7969 18.7901 75.0872 19.0841 74.6721 18.669L72.9971 16.994C72.3566 16.3535 71.3181 16.3535 70.6776 16.994L68.2798 19.3919C67.4987 20.1729 67.4987 21.4393 68.2798 22.2203L75.2111 29.1516C75.5862 29.5267 75.7969 30.0354 75.7969 30.5658V40.3743C75.7969 41.2629 75.2081 42.0382 74.3692 42.3309C73.3007 42.7038 72.2603 43.1369 71.2519 43.6262C70.4511 44.0148 69.4845 43.8836 68.8551 43.2542L61.9166 36.3157C61.5415 35.9406 61.3308 35.4319 61.3308 34.9015V25.099C61.3308 23.9944 60.4354 23.099 59.3308 23.099H55.9396C55.0338 23.099 54.2995 23.8333 54.2995 24.7391V27.1077C54.2995 27.6948 53.5897 27.9888 53.1745 27.5737C49.9762 24.3752 44.772 24.3754 41.5737 27.5737C38.3754 30.772 38.3754 35.9762 41.5737 39.1745C41.9887 39.5896 41.6948 40.2993 41.1078 40.2993H38.739C37.8333 40.2993 37.099 41.0336 37.099 41.9393V45.3305C37.099 46.4351 37.9944 47.3305 39.099 47.3305H48.9013C49.4317 47.3305 49.9404 47.5413 50.3155 47.9163L57.2542 54.8551C57.8836 55.4845 58.0148 56.4511 57.6262 57.2519C57.1369 58.2603 56.7038 59.3007 56.3309 60.3692C56.0382 61.2081 55.2629 61.7969 54.3743 61.7969H44.5656C44.0352 61.7969 43.5265 61.5862 43.1514 61.2111L36.2203 54.28C35.4393 53.4989 34.1729 53.4989 33.3919 54.28L30.994 56.6779C30.3535 57.3184 30.3535 58.3568 30.994 58.9972L32.669 60.6721C33.0841 61.0872 32.7901 61.7969 32.2031 61.7969C27.6799 61.7969 24 65.4768 24 70C24 74.5232 27.6799 78.2031 32.2031 78.2031C32.7901 78.2031 33.0841 78.9129 32.6691 79.328L30.9942 81.0029C30.3537 81.6434 30.3537 82.6819 30.9942 83.3224L33.3921 85.7202C34.1731 86.5013 35.4395 86.5013 36.2205 85.7202L43.1514 78.7889C43.5265 78.4139 44.0352 78.2031 44.5656 78.2031H54.3744C55.2629 78.2031 56.0382 78.7918 56.331 79.6308C56.7039 80.6992 57.1369 81.7397 57.6262 82.7481C58.0148 83.5489 57.8836 84.5155 57.2542 85.1449L50.3155 92.0837C49.9404 92.4587 49.4317 92.6694 48.9013 92.6694H39.099C37.9944 92.6694 37.099 93.5649 37.099 94.6694V98.0607C37.099 98.9664 37.8333 99.7007 38.739 99.7007H41.1078C41.6948 99.7007 41.9887 100.41 41.5737 100.825C38.3754 104.024 38.3754 109.228 41.5737 112.426C43.173 114.026 45.2733 114.825 47.3742 114.825C49.4745 114.825 51.5756 114.025 53.1745 112.426C53.5897 112.011 54.2995 112.305 54.2995 112.892V115.261C54.2995 116.167 55.0338 116.901 55.9396 116.901H59.3308C60.4354 116.901 61.3308 116.006 61.3308 114.901V105.099C61.3308 104.568 61.5415 104.059 61.9166 103.684L68.8551 96.7458C69.4845 96.1164 70.4511 95.9852 71.2519 96.3738C72.2603 96.8631 73.3008 97.2961 74.3693 97.669C75.2082 97.9618 75.7969 98.7371 75.7969 99.6257V109.434C75.7969 109.965 75.5862 110.473 75.2111 110.848L68.28 117.779C67.4989 118.561 67.4989 119.827 68.28 120.608L70.6779 123.006C71.3184 123.646 72.3568 123.646 72.9972 123.006L74.6721 121.331C75.0872 120.916 75.7969 121.21 75.7969 121.797C75.7969 126.32 79.4768 130 84 130C88.5232 130 92.2031 126.32 92.2031 121.797C92.2031 121.21 92.9128 120.916 93.3279 121.331L95.0029 123.006C95.6434 123.646 96.6819 123.646 97.3224 123.006L99.7202 120.608C100.501 119.827 100.501 118.561 99.7202 117.78L92.7889 110.848C92.4138 110.473 92.2031 109.965 92.2031 109.434V99.6257C92.2031 98.7371 92.7919 97.9618 93.6308 97.6691C94.6993 97.2962 95.7397 96.8631 96.7481 96.3738C97.5489 95.9852 98.5155 96.1164 99.1449 96.7458L106.083 103.684C106.459 104.059 106.669 104.568 106.669 105.099V114.901C106.669 116.006 107.565 116.901 108.669 116.901H112.06C112.966 116.901 113.7 116.167 113.7 115.261V112.892C113.7 112.305 114.41 112.011 114.825 112.426C116.425 114.025 118.525 114.825 120.626 114.825C122.726 114.825 124.827 114.025 126.426 112.426C129.625 109.228 129.625 104.024 126.426 100.825C126.011 100.41 126.305 99.7007 126.892 99.7007H129.261C130.167 99.7007 130.901 98.9664 130.901 98.0607V94.6694C130.901 93.5649 130.006 92.6694 128.901 92.6694H119.099C118.568 92.6694 118.06 92.4587 117.685 92.0837L110.746 85.1449C110.116 84.5155 109.985 83.5489 110.374 82.7481C110.863 81.7397 111.296 80.6993 111.669 79.6308C111.962 78.7919 112.737 78.2031 113.626 78.2031H123.434C123.965 78.2031 124.474 78.4138 124.849 78.7889L131.78 85.72C132.561 86.5011 133.827 86.5011 134.608 85.72L137.006 83.3221C137.646 82.6816 137.646 81.6432 137.006 81.0028L135.331 79.3279C134.916 78.9128 135.21 78.2031 135.797 78.2031C140.32 78.2031 144 74.5232 144 70ZM84 78.2031C79.4768 78.2031 75.7969 74.5232 75.7969 70C75.7969 65.4768 79.4768 61.7969 84 61.7969C88.5232 61.7969 92.2031 65.4768 92.2031 70C92.2031 74.5232 88.5232 78.2031 84 78.2031Z" fill="url(#paint0_linear_11_175)"/>
</g>
<defs>
<filter id="filter0_d_11_175" x="0" y="0" width="168" height="168" filterUnits="userSpaceOnUse" color-interpolation-filters="sRGB">
<feFlood flood-opacity="0" result="BackgroundImageFix"/>
<feColorMatrix in="SourceAlpha" type="matrix" values="0 0 0 0 0 0 0 0 0 0 0 0 0 0 0 0 0 0 127 0" result="hardAlpha"/>
<feOffset dy="14"/>
<feGaussianBlur stdDeviation="12"/>
<feComposite in2="hardAlpha" operator="out"/>
<feColorMatrix type="matrix" values="0 0 0 0 0.4 0 0 0 0 0.52549 0 0 0 0 0.658824 0 0 0 0.2 0"/>
<feBlend mode="normal" in2="BackgroundImageFix" result="effect1_dropShadow_11_175"/>
<feBlend mode="normal" in="SourceGraphic" in2="effect1_dropShadow_11_175" result="shape"/>
</filter>
<linearGradient id="paint0_linear_11_175" x1="-113.297" y1="-431.724" x2="238.786" y2="-405.154" gradientUnits="userSpaceOnUse">
<stop stop-color="#0587FF"/>
<stop offset="1" stop-color="#83ACD8"/>
</linearGradient>
</defs>
</svg>
