<svg width="30" height="30" viewBox="0 0 30 30" fill="none" xmlns="http://www.w3.org/2000/svg">
<path fill-rule="evenodd" clip-rule="evenodd" d="M13.5119 7.43057C13.1974 7.70014 13.161 8.17361 13.4306 8.48811L19.0122 15L13.4306 21.5119C13.161 21.8264 13.1974 22.2999 13.5119 22.5695C13.8264 22.839 14.2999 22.8026 14.5695 22.4881L20.5695 15.4881C20.8102 15.2072 20.8102 14.7928 20.5695 14.5119L14.5695 7.51192C14.2999 7.19743 13.8264 7.161 13.5119 7.43057Z" fill="#EAF4F6"/>
<path opacity="0.5" fill-rule="evenodd" clip-rule="evenodd" d="M9.51168 7.43045C9.19718 7.70002 9.16076 8.17349 9.43033 8.48799L15.012 14.9999L9.43033 21.5118C9.16076 21.8263 9.19718 22.2998 9.51168 22.5693C9.82617 22.8389 10.2996 22.8025 10.5692 22.488L16.5692 15.488C16.81 15.2071 16.81 14.7927 16.5692 14.5118L10.5692 7.5118C10.2996 7.1973 9.82617 7.16088 9.51168 7.43045Z" fill="#EAF4F6"/>
</svg>
