<svg width="160" height="160" viewBox="0 0 160 160" fill="none" xmlns="http://www.w3.org/2000/svg">
<g filter="url(#filter0_d_11_85)">
<path d="M72 19C72 18.4477 72.4477 18 73 18H87C87.5523 18 88 18.4477 88 19V21C88 21.5523 87.5523 22 87 22H73C72.4477 22 72 21.5523 72 21V19Z" fill="url(#paint0_linear_11_85)"/>
<path d="M92 12C92 11.4696 91.7893 10.9609 91.4142 10.5858C91.0391 10.2107 90.5304 10 90 10H70C69.4696 10 68.9609 10.2107 68.5858 10.5858C68.2107 10.9609 68 11.4696 68 12V13C68 13.5523 68.4477 14 69 14H91C91.5523 14 92 13.5523 92 13V12Z" fill="url(#paint1_linear_11_85)"/>
<path d="M130.17 19.318L116.734 10.642C116.293 10.3563 115.8 10.1603 115.283 10.0652C114.766 9.97016 114.235 9.97793 113.721 10.0881C113.207 10.1982 112.72 10.4086 112.288 10.7071C112.13 10.8157 111.981 10.9351 111.842 11.0643C111.437 11.4396 111.576 12.071 112.04 12.3708L130.518 24.3102C130.983 24.6104 131.617 24.4774 131.792 23.9527C132.017 23.2773 132.061 22.5481 131.908 21.8403C131.685 20.8027 131.06 19.8958 130.17 19.318Z" fill="url(#paint2_linear_11_85)"/>
<path d="M32.5026 30.8282C32.8019 31.2912 33.4194 31.4246 33.8832 31.1265L52.3908 19.2281C52.8562 18.9289 52.9902 18.3087 52.6898 17.844L51.5169 16.0296C51.2171 15.5658 50.5982 15.4328 50.1344 15.7325L31.6542 27.6731C31.1902 27.9729 31.0572 28.592 31.357 29.0559L32.5026 30.8282Z" fill="url(#paint3_linear_11_85)"/>
<path d="M35.308 91.2119C35.5681 92.0197 36.0772 92.7245 36.7623 93.2253C37.4474 93.7261 38.2734 93.9972 39.122 93.9999H44.2811C44.953 93.9999 45.4337 93.3505 45.2375 92.7079L32.1453 49.8325C31.9646 49.241 31.2957 48.9536 30.7423 49.2298L26.218 51.4879C25.3676 51.9196 24.6974 52.6384 24.3262 53.517C23.955 54.3956 23.9068 55.3772 24.19 56.2879L35.308 91.2119Z" fill="url(#paint4_linear_11_85)"/>
<path d="M98 119C98 118.448 97.5523 118 97 118H63C62.4477 118 62 118.448 62 119V120C62 120.53 62.2107 121.039 62.5858 121.414C62.9609 121.789 63.4696 122 64 122H96C96.5304 122 97.0391 121.789 97.4142 121.414C97.7893 121.039 98 120.53 98 120V119Z" fill="url(#paint5_linear_11_85)"/>
<path d="M133.782 51.4879L129.268 49.2309C128.715 48.9542 128.045 49.2413 127.864 49.833L114.763 92.7077C114.567 93.3503 115.047 93.9999 115.719 93.9999H120.878C121.725 93.9977 122.55 93.7276 123.235 93.2283C123.92 92.729 124.429 92.0261 124.69 91.2199L135.81 56.2919C136.094 55.3806 136.047 54.3981 135.675 53.5187C135.304 52.6392 134.633 51.9197 133.782 51.4879Z" fill="url(#paint6_linear_11_85)"/>
<path d="M55.0361 105.862C55.8783 106.09 56.6233 106.586 57.1581 107.275C57.693 107.965 57.9886 108.81 58.0001 109.682V112C58.0001 112.53 58.2108 113.039 58.5858 113.414C58.9609 113.789 59.4696 114 60.0001 114H100C100.53 114 101.039 113.789 101.414 113.414C101.789 113.039 102 112.53 102 112V109.682C102.012 108.81 102.307 107.965 102.842 107.275C103.377 106.586 104.122 106.09 104.964 105.862C105.503 105.704 105.995 105.414 106.395 105.02C106.795 104.625 107.091 104.137 107.256 103.6L127.246 38.1781C127.359 37.8024 127.346 37.4003 127.211 37.0322C127.076 36.664 126.825 36.3496 126.496 36.1361L102.896 20.9681C102.717 20.8524 102.503 20.802 102.291 20.8253C102.079 20.8486 101.882 20.9442 101.732 21.0961L97.4141 25.4141C97.0391 25.7892 96.5304 25.9999 96.0001 26.0001H64.0001C63.4697 25.9999 62.961 25.7892 62.5861 25.4141L58.2581 21.0841C58.0836 20.9093 57.847 20.8108 57.6001 20.8101C57.4215 20.8108 57.2467 20.8621 57.0961 20.9581L33.4961 36.1261C33.1669 36.3394 32.9158 36.6538 32.7805 37.022C32.6453 37.3902 32.6332 37.7924 32.7461 38.1681L52.7461 103.59C52.9098 104.129 53.2048 104.618 53.6045 105.015C54.0042 105.411 54.4961 105.703 55.0361 105.862ZM46.0001 46.0001C45.9968 43.0975 46.8967 40.2658 48.575 37.8977C50.2533 35.5295 52.6268 33.7422 55.3665 32.7834C58.1061 31.8247 61.0762 31.7421 63.8649 32.5471C66.5348 33.3178 68.9118 34.8655 70.6955 36.9892C70.8493 37.1722 71.0592 37.3007 71.294 37.3457L93.1871 41.5325C93.4092 41.5749 93.6385 41.5397 93.8413 41.4398C97.0112 39.8772 100.66 39.5709 104.053 40.5912C107.557 41.6451 110.508 44.0303 112.274 47.2352C114.04 50.4401 114.48 54.2095 113.499 57.7347C112.543 61.1681 110.314 64.1036 107.272 65.9466C107.112 66.0433 106.979 66.1793 106.892 66.3439L97.9454 83.1053C97.8433 83.2966 97.807 83.5158 97.8364 83.7306C97.9392 84.4827 97.9939 85.2408 98.0001 86.0001C98.0081 88.6405 97.4351 91.2504 96.3218 93.6447C95.2084 96.039 93.5819 98.159 91.5576 99.8544C89.5333 101.55 87.1608 102.779 84.6083 103.455C82.0559 104.131 79.3859 104.237 76.7878 103.766C74.1897 103.295 71.7271 102.258 69.5746 100.728C67.4221 99.199 65.6325 97.2148 64.3325 94.9165C63.0326 92.6181 62.2543 90.0619 62.0527 87.4292C61.8613 84.9294 62.1943 82.4187 63.0286 80.0576C63.1142 79.8156 63.1104 79.5501 63.0107 79.3135L54.5205 59.1765C54.4213 58.9412 54.2351 58.7541 54.0044 58.6446C51.6751 57.5389 49.6934 55.8106 48.2807 53.6475C46.7954 51.3732 46.0031 48.7163 46.0001 46.0001Z" fill="url(#paint7_linear_11_85)"/>
<path d="M80 72C77.2311 72 74.5243 72.8211 72.222 74.3594C69.9197 75.8978 68.1253 78.0843 67.0657 80.6424C66.0061 83.2006 65.7288 86.0155 66.269 88.7313C66.8092 91.447 68.1426 93.9416 70.1005 95.8995C72.0584 97.8574 74.553 99.1908 77.2687 99.731C79.9845 100.271 82.7994 99.9939 85.3576 98.9343C87.9157 97.8747 90.1022 96.0803 91.6406 93.778C93.1789 91.4757 94 88.7689 94 86C93.9952 82.2884 92.5187 78.7302 89.8942 76.1058C87.2698 73.4813 83.7116 72.0048 80 72ZM80 94C78.4178 94 76.871 93.5308 75.5554 92.6518C74.2399 91.7727 73.2145 90.5233 72.609 89.0615C72.0035 87.5997 71.845 85.9911 72.1537 84.4393C72.4624 82.8874 73.2243 81.462 74.3432 80.3431C75.462 79.2243 76.8874 78.4624 78.4393 78.1537C79.9911 77.845 81.5997 78.0035 83.0615 78.609C84.5233 79.2145 85.7727 80.2398 86.6518 81.5554C87.5308 82.871 88 84.4178 88 86C88 88.1217 87.1572 90.1566 85.6569 91.6569C84.1566 93.1571 82.1217 94 80 94Z" fill="url(#paint8_linear_11_85)"/>
<path d="M80 90C82.2091 90 84 88.2091 84 86C84 83.7909 82.2091 82 80 82C77.7909 82 76 83.7909 76 86C76 88.2091 77.7909 90 80 90Z" fill="url(#paint9_linear_11_85)"/>
<path d="M28.6422 24.8543C28.6433 24.8553 28.6449 24.8555 28.6461 24.8547L47.96 12.3729C48.4239 12.0731 48.5635 11.4416 48.1581 11.0664C47.6357 10.5827 46.9888 10.243 46.281 10.0909C45.244 9.86816 44.1609 10.0664 43.27 10.6421L29.826 19.3201C29.3847 19.6055 29.004 19.9752 28.7057 20.4078C28.4073 20.8405 28.1971 21.3278 28.0872 21.8417C27.9772 22.3556 27.9696 22.8862 28.0648 23.4031C28.16 23.9199 28.3561 24.4128 28.6418 24.8538C28.6419 24.854 28.6421 24.8541 28.6422 24.8543Z" fill="url(#paint10_linear_11_85)"/>
<path d="M128.643 29.0559C128.943 28.592 128.81 27.9729 128.346 27.6731L109.866 15.7325C109.402 15.4328 108.783 15.5658 108.483 16.0296L107.31 17.844C107.01 18.3087 107.144 18.9289 107.609 19.2281L126.117 31.1265C126.581 31.4246 127.198 31.2912 127.498 30.8282L128.643 29.0559Z" fill="url(#paint11_linear_11_85)"/>
<path d="M60 48C61.1046 48 62 47.1046 62 46C62 44.8954 61.1046 44 60 44C58.8954 44 58 44.8954 58 46C58 47.1046 58.8954 48 60 48Z" fill="url(#paint12_linear_11_85)"/>
<path d="M70 46C70 44.0222 69.4135 42.0888 68.3147 40.4443C67.2159 38.7998 65.6541 37.5181 63.8268 36.7612C61.9996 36.0043 59.9889 35.8063 58.0491 36.1922C56.1093 36.578 54.3275 37.5304 52.9289 38.9289C51.5304 40.3275 50.578 42.1093 50.1922 44.0491C49.8063 45.9889 50.0043 47.9996 50.7612 49.8268C51.5181 51.6541 52.7998 53.2159 54.4443 54.3147C56.0888 55.4135 58.0222 56 60 56C62.6512 55.9968 65.1929 54.9422 67.0676 53.0676C68.9422 51.1929 69.9968 48.6512 70 46ZM54 46C54 44.8133 54.3519 43.6533 55.0112 42.6666C55.6705 41.6799 56.6075 40.9109 57.7039 40.4567C58.8003 40.0026 60.0067 39.8838 61.1706 40.1153C62.3344 40.3468 63.4035 40.9182 64.2426 41.7574C65.0818 42.5965 65.6532 43.6656 65.8847 44.8295C66.1162 45.9933 65.9974 47.1998 65.5433 48.2961C65.0892 49.3925 64.3201 50.3295 63.3334 50.9888C62.3467 51.6481 61.1867 52 60 52C58.4087 52 56.8826 51.3679 55.7574 50.2426C54.6321 49.1174 54 47.5913 54 46Z" fill="url(#paint13_linear_11_85)"/>
<path d="M60.0001 60C59.6296 60 59.3673 60.3569 59.5111 60.6983L64.948 73.6025C65.2481 74.3148 66.2168 74.437 66.7373 73.8654C68.4047 72.034 70.4377 70.5627 72.7121 69.5507C75.5198 68.3014 78.6013 67.794 81.6614 68.077C84.7215 68.36 87.6576 69.424 90.1886 71.1671C92.1822 72.5401 93.8717 74.2982 95.1618 76.3307C95.5985 77.0188 96.6512 77.0293 97.0349 76.3103L100.623 69.5869C101.002 68.8774 100.427 68.0145 99.6228 67.9939C97.4667 67.9385 95.3434 67.3847 93.4235 66.3649C90.9428 65.0472 88.9166 63.0129 87.6089 60.527C86.3012 58.0411 85.7727 55.219 86.0922 52.4283C86.3457 50.2134 87.1242 48.0999 88.3524 46.2591C88.7796 45.6189 88.4555 44.7013 87.6995 44.5567L75.002 42.128C74.2594 41.986 73.6251 42.692 73.7636 43.4353C74.0621 45.0372 74.0795 46.6833 73.8104 48.2991C73.4497 50.4663 72.5839 52.518 71.2832 54.2886C69.9825 56.0591 68.2834 57.4987 66.3233 58.4909C64.3631 59.4831 62.197 60 60.0001 60Z" fill="url(#paint14_linear_11_85)"/>
<path d="M100 64C101.978 64 103.911 63.4135 105.556 62.3147C107.2 61.2159 108.482 59.6541 109.239 57.8268C109.996 55.9996 110.194 53.9889 109.808 52.0491C109.422 50.1093 108.47 48.3275 107.071 46.9289C105.673 45.5304 103.891 44.578 101.951 44.1922C100.011 43.8063 98.0004 44.0043 96.1732 44.7612C94.3459 45.5181 92.7841 46.7998 91.6853 48.4443C90.5865 50.0888 90 52.0222 90 54C90.0032 56.6512 91.0578 59.1929 92.9324 61.0676C94.8071 62.9422 97.3488 63.9968 100 64ZM100 48C101.187 48 102.347 48.3519 103.333 49.0112C104.32 49.6705 105.089 50.6075 105.543 51.7039C105.997 52.8003 106.116 54.0067 105.885 55.1706C105.653 56.3344 105.082 57.4035 104.243 58.2426C103.404 59.0818 102.334 59.6532 101.171 59.8847C100.007 60.1162 98.8003 59.9974 97.7039 59.5433C96.6075 59.0892 95.6705 58.3201 95.0112 57.3334C94.3519 56.3467 94 55.1867 94 54C94 52.4087 94.6321 50.8826 95.7574 49.7574C96.8826 48.6321 98.4087 48 100 48Z" fill="url(#paint15_linear_11_85)"/>
<path d="M100 56C101.105 56 102 55.1046 102 54C102 52.8954 101.105 52 100 52C98.8954 52 98 52.8954 98 54C98 55.1046 98.8954 56 100 56Z" fill="url(#paint16_linear_11_85)"/>
</g>
<defs>
<filter id="filter0_d_11_85" x="0.0078125" y="-0.000732422" width="159.986" height="160.001" filterUnits="userSpaceOnUse" color-interpolation-filters="sRGB">
<feFlood flood-opacity="0" result="BackgroundImageFix"/>
<feColorMatrix in="SourceAlpha" type="matrix" values="0 0 0 0 0 0 0 0 0 0 0 0 0 0 0 0 0 0 127 0" result="hardAlpha"/>
<feOffset dy="14"/>
<feGaussianBlur stdDeviation="12"/>
<feComposite in2="hardAlpha" operator="out"/>
<feColorMatrix type="matrix" values="0 0 0 0 0.4 0 0 0 0 0.52549 0 0 0 0 0.658824 0 0 0 0.2 0"/>
<feBlend mode="normal" in2="BackgroundImageFix" result="effect1_dropShadow_11_85"/>
<feBlend mode="normal" in="SourceGraphic" in2="effect1_dropShadow_11_85" result="shape"/>
</filter>
<linearGradient id="paint0_linear_11_85" x1="53.6937" y1="3.27588" x2="96.9627" y2="16.3372" gradientUnits="userSpaceOnUse">
<stop stop-color="#0587FF"/>
<stop offset="1" stop-color="#83ACD8"/>
</linearGradient>
<linearGradient id="paint1_linear_11_85" x1="40.5405" y1="-4.72412" x2="99.3093" y2="21.886" gradientUnits="userSpaceOnUse">
<stop stop-color="#0587FF"/>
<stop offset="1" stop-color="#83ACD8"/>
</linearGradient>
<linearGradient id="paint2_linear_11_85" x1="87.4043" y1="-44.6815" x2="148.096" y2="-38.2689" gradientUnits="userSpaceOnUse">
<stop stop-color="#0587FF"/>
<stop offset="1" stop-color="#83ACD8"/>
</linearGradient>
<linearGradient id="paint3_linear_11_85" x1="5.16237" y1="-45.4587" x2="70.6275" y2="-38.7361" gradientUnits="userSpaceOnUse">
<stop stop-color="#0587FF"/>
<stop offset="1" stop-color="#83ACD8"/>
</linearGradient>
<linearGradient id="paint4_linear_11_85" x1="-0.733425" y1="-118.041" x2="62.9912" y2="-115.746" gradientUnits="userSpaceOnUse">
<stop stop-color="#0587FF"/>
<stop offset="1" stop-color="#83ACD8"/>
</linearGradient>
<linearGradient id="paint5_linear_11_85" x1="20.8108" y1="103.276" x2="93.504" y2="152.648" gradientUnits="userSpaceOnUse">
<stop stop-color="#0587FF"/>
<stop offset="1" stop-color="#83ACD8"/>
</linearGradient>
<linearGradient id="paint6_linear_11_85" x1="89.6256" y1="-118.041" x2="153.353" y2="-115.746" gradientUnits="userSpaceOnUse">
<stop stop-color="#0587FF"/>
<stop offset="1" stop-color="#83ACD8"/>
</linearGradient>
<linearGradient id="paint7_linear_11_85" x1="-75.6271" y1="-322.225" x2="202.037" y2="-300.942" gradientUnits="userSpaceOnUse">
<stop stop-color="#0587FF"/>
<stop offset="1" stop-color="#83ACD8"/>
</linearGradient>
<linearGradient id="paint8_linear_11_85" x1="33.9639" y1="-31.0689" x2="116.117" y2="-24.8692" gradientUnits="userSpaceOnUse">
<stop stop-color="#0587FF"/>
<stop offset="1" stop-color="#83ACD8"/>
</linearGradient>
<linearGradient id="paint9_linear_11_85" x1="66.8468" y1="52.5518" x2="90.319" y2="54.3231" gradientUnits="userSpaceOnUse">
<stop stop-color="#0587FF"/>
<stop offset="1" stop-color="#83ACD8"/>
</linearGradient>
<linearGradient id="paint10_linear_11_85" x1="4.19893" y1="-44.6776" x2="64.9002" y2="-38.2628" gradientUnits="userSpaceOnUse">
<stop stop-color="#0587FF"/>
<stop offset="1" stop-color="#83ACD8"/>
</linearGradient>
<linearGradient id="paint11_linear_11_85" x1="81.1143" y1="-45.4587" x2="146.579" y2="-38.7361" gradientUnits="userSpaceOnUse">
<stop stop-color="#0587FF"/>
<stop offset="1" stop-color="#83ACD8"/>
</linearGradient>
<linearGradient id="paint12_linear_11_85" x1="53.4234" y1="29.2759" x2="65.1595" y2="30.1615" gradientUnits="userSpaceOnUse">
<stop stop-color="#0587FF"/>
<stop offset="1" stop-color="#83ACD8"/>
</linearGradient>
<linearGradient id="paint13_linear_11_85" x1="27.1171" y1="-37.6207" x2="85.7976" y2="-33.1923" gradientUnits="userSpaceOnUse">
<stop stop-color="#0587FF"/>
<stop offset="1" stop-color="#83ACD8"/>
</linearGradient>
<linearGradient id="paint14_linear_11_85" x1="10.7845" y1="-91.5056" x2="134.685" y2="-80.5812" gradientUnits="userSpaceOnUse">
<stop stop-color="#0587FF"/>
<stop offset="1" stop-color="#83ACD8"/>
</linearGradient>
<linearGradient id="paint15_linear_11_85" x1="67.1171" y1="-29.6207" x2="125.798" y2="-25.1923" gradientUnits="userSpaceOnUse">
<stop stop-color="#0587FF"/>
<stop offset="1" stop-color="#83ACD8"/>
</linearGradient>
<linearGradient id="paint16_linear_11_85" x1="93.4234" y1="37.2759" x2="105.16" y2="38.1615" gradientUnits="userSpaceOnUse">
<stop stop-color="#0587FF"/>
<stop offset="1" stop-color="#83ACD8"/>
</linearGradient>
</defs>
</svg>
