<svg width="83" height="88" viewBox="0 0 83 88" fill="none" xmlns="http://www.w3.org/2000/svg">
<g filter="url(#filter0_d_11_367)">
<path d="M58.0222 43.9869C58.0222 43.9869 58.0222 43.9869 58.0222 43.9869C58.0221 43.9867 54.8967 38.6152 53.4202 36.0777C53.0959 35.5204 53.3885 34.8383 53.9845 34.5924C54.4444 34.4026 54.8373 34.157 55.0585 33.7751C55.7268 32.6213 54.5371 30.7285 54.8495 29.4918C55.1713 28.2189 57.071 27.1175 57.071 25.8237C57.071 24.5632 55.107 23.0906 54.785 21.8252C54.4704 20.5887 55.6566 18.6939 54.986 17.5415C54.3155 16.3889 52.0821 16.4836 51.1628 15.599C50.2168 14.6886 50.2197 12.4611 49.0788 11.851C47.9332 11.2387 46.0713 12.4763 44.7993 12.1831C43.5419 11.8933 42.4184 10 41.1049 10C39.772 10 37.6519 12.1477 37.3194 12.225C36.0481 12.5205 34.1838 11.2859 33.0394 11.9009C31.8995 12.513 31.9066 14.7407 30.9623 15.6526C30.0445 16.5389 27.811 16.4483 27.1425 17.6021C26.4742 18.7557 27.6639 20.6481 27.3516 21.8854C27.0384 23.126 25.0726 24.3829 25.0726 25.8176C25.0726 27.1115 26.977 28.2094 27.3008 29.4816C27.6154 30.7181 26.4293 32.6127 27.0998 33.7656C27.4649 34.3931 28.2931 34.6507 29.1203 34.8983C29.2168 34.9272 29.3994 35.0352 29.2757 35.2154C28.7098 36.1921 24.1556 44.052 24.1552 44.0528C24.1552 44.0528 24.1552 44.0528 24.1551 44.0528C23.7928 44.6781 24.0871 45.214 24.8088 45.2444L28.3417 45.3917C29.0635 45.4221 29.9689 45.9465 30.3542 46.5576L32.2394 49.5491C32.6246 50.1601 33.2359 50.1487 33.5981 49.5236C33.5981 49.5236 33.5981 49.5236 33.5982 49.5236C33.5991 49.5219 38.873 40.4169 38.8751 40.4143C38.9809 40.2906 39.0873 40.316 39.1382 40.3592C39.7154 40.8507 40.5199 41.3409 41.1914 41.3409C41.8499 41.3409 42.4597 40.8794 43.0629 40.3648C43.112 40.3229 43.2314 40.2372 43.3187 40.4151C43.3202 40.4179 48.5889 49.4745 48.5891 49.4748C48.5891 49.4748 48.5891 49.4748 48.5891 49.4748C48.9523 50.0992 49.5637 50.1098 49.9478 49.4979L51.8277 46.5029C52.2119 45.8914 53.1163 45.3649 53.8381 45.3334L57.3707 45.1795C58.0921 45.1478 58.3854 44.6111 58.0222 43.9869ZM46.9436 35.7952C43.0374 38.0677 38.3487 37.8242 34.7674 35.5653C29.5199 32.204 27.7933 25.2508 30.9479 19.8061C34.1384 14.2986 41.1521 12.3552 46.7092 15.3818C46.7384 15.3977 46.7672 15.4141 46.7962 15.4303C46.8374 15.4531 46.8785 15.4763 46.9194 15.4996C48.6339 16.4881 50.1205 17.9226 51.185 19.7524C54.4385 25.3448 52.5359 32.5417 46.9436 35.7952Z" fill="url(#paint0_linear_11_367)"/>
<path d="M46.05 17.1456C46.0338 17.1362 46.0174 17.1274 46.0012 17.1182C43.0326 15.4001 39.249 15.2745 36.078 17.1193C31.3723 19.857 29.7711 25.9125 32.5088 30.618C33.3441 32.054 34.4889 33.2002 35.8096 34.0228C35.9219 34.094 36.0355 34.1639 36.1516 34.2311C40.8624 36.9602 46.9146 35.3481 49.6436 30.6376C52.3725 25.9268 50.7608 19.8747 46.05 17.1456ZM47.2285 24.8465L45.5791 26.4542C45.0682 26.9521 44.7489 27.9349 44.8696 28.6381L45.259 30.9082C45.3796 31.6114 44.9617 31.9151 44.3302 31.5831L42.2914 30.5112C41.6599 30.1792 40.6266 30.1792 39.9951 30.5112L37.9564 31.5831C37.3249 31.9151 36.9069 31.6114 37.0275 30.9082L37.4169 28.6381C37.5375 27.9349 37.2182 26.9521 36.7073 26.4542L35.058 24.8465C34.547 24.3486 34.7068 23.8572 35.4128 23.7545L37.6921 23.4233C38.3981 23.3207 39.2341 22.7133 39.5499 22.0736L40.5692 20.0082C40.885 19.3685 41.4017 19.3685 41.7173 20.0082L42.7368 22.0736C43.0525 22.7133 43.8884 23.3207 44.5945 23.4233L46.8738 23.7545C47.5797 23.8572 47.7394 24.3486 47.2285 24.8465Z" fill="url(#paint1_linear_11_367)"/>
</g>
<defs>
<filter id="filter0_d_11_367" x="0" y="0" width="82.1781" height="88" filterUnits="userSpaceOnUse" color-interpolation-filters="sRGB">
<feFlood flood-opacity="0" result="BackgroundImageFix"/>
<feColorMatrix in="SourceAlpha" type="matrix" values="0 0 0 0 0 0 0 0 0 0 0 0 0 0 0 0 0 0 127 0" result="hardAlpha"/>
<feOffset dy="14"/>
<feGaussianBlur stdDeviation="12"/>
<feComposite in2="hardAlpha" operator="out"/>
<feColorMatrix type="matrix" values="0 0 0 0 0.513726 0 0 0 0 0.67451 0 0 0 0 0.847059 0 0 0 0.36 0"/>
<feBlend mode="normal" in2="BackgroundImageFix" result="effect1_dropShadow_11_367"/>
<feBlend mode="normal" in="SourceGraphic" in2="effect1_dropShadow_11_367" result="shape"/>
</filter>
<linearGradient id="paint0_linear_11_367" x1="-15.1047" y1="-137.241" x2="85.3282" y2="-130.765" gradientUnits="userSpaceOnUse">
<stop offset="0.9999" stop-color="#EAF4F6"/>
<stop offset="1" stop-color="#83ACD8"/>
</linearGradient>
<linearGradient id="paint1_linear_11_367" x1="8.51745" y1="-57.0179" x2="66.6107" y2="-52.6288" gradientUnits="userSpaceOnUse">
<stop offset="0.9997" stop-color="#EAF4F6"/>
<stop offset="0.9998" stop-color="#83ACD8"/>
<stop offset="0.9999" stop-color="#83ACD8"/>
<stop offset="1" stop-color="#83ACD8"/>
</linearGradient>
</defs>
</svg>
