<svg width="160" height="160" viewBox="0 0 160 160" fill="none" xmlns="http://www.w3.org/2000/svg">
<g filter="url(#filter0_d_11_160)">
<path d="M125 43.275H124.981C124.44 43.275 123.915 43.0898 123.495 42.7453L98.2824 22.117C98.1 21.9678 97.8708 21.8877 97.6352 21.8911L89.9613 21.9986C89.4123 22.0063 88.9721 22.4553 88.9754 23.0044L89.0305 32.3836C89.0328 33.0094 88.7891 33.607 88.3484 34.05C87.9078 34.493 87.3102 34.7414 86.6867 34.7414H44.8578C44.007 34.7414 43.2242 34.282 42.8094 33.5391L30.3734 11.2011C30.1969 10.8841 29.8625 10.6875 29.4997 10.6875H25.6875C25.1352 10.6875 24.6875 11.1352 24.6875 11.6875V108.636C24.6875 109.188 25.1352 109.636 25.6875 109.636H35.6055C36.1578 109.636 36.6055 109.188 36.6055 108.636V103.32C36.6055 102.255 37.3203 101.327 38.3469 101.053L53.3141 97.0734C53.5109 97.0219 53.7148 96.9961 53.9164 96.9961H68.8859C70.1797 96.9961 71.2297 98.0461 71.2297 99.3398V106.78C71.2297 107.33 71.6745 107.777 72.2249 107.78L74.5983 107.791C75.1525 107.794 75.6031 107.345 75.6031 106.791V99.3398C75.6031 98.7164 75.8516 98.1188 76.2922 97.6781C76.7352 97.2375 77.3422 96.9938 77.9562 96.9961L87.0172 97.0406C88.3063 97.0477 89.3492 98.093 89.3492 99.3844V105.404C89.3492 105.951 89.7885 106.396 90.3352 106.404L93.5375 106.448C94.8195 106.465 95.8484 107.51 95.8484 108.792V120.312C95.8484 120.865 96.2962 121.312 96.8484 121.312H104.924C105.256 121.312 105.567 121.147 105.753 120.872L111.849 111.839C112.285 111.192 113.012 110.805 113.792 110.805H123.398C123.67 110.805 123.93 110.695 124.118 110.499L135.033 99.1544C135.212 98.9681 135.312 98.7196 135.312 98.4611V44.1967C135.312 43.6412 134.86 43.1921 134.304 43.1968L125 43.275ZM132.05 65.5102C132.05 66.8039 131.002 67.8539 129.706 67.8539H125.25C124.698 67.8539 124.25 68.3016 124.25 68.8539V69.6727C124.25 70.9664 123.2 72.0164 121.906 72.0164H109.105C107.809 72.0164 106.761 70.9664 106.761 69.6727V68.8539C106.761 68.3016 106.313 67.8539 105.761 67.8539H104.229C103.677 67.8539 103.229 68.3016 103.229 68.8539V90.4875C103.229 91.7812 102.179 92.8313 100.885 92.8313H89.6586C88.3648 92.8313 87.3148 91.7812 87.3148 90.4875V68.8539C87.3148 68.3016 86.8671 67.8539 86.3148 67.8539H80.5289C79.9766 67.8539 79.5289 68.3016 79.5289 68.8539V76.8375C79.5289 78.1336 78.4789 79.1812 77.1852 79.1812H63.2023C61.9086 79.1812 60.8586 78.1336 60.8586 76.8375V71.1414C60.8586 70.5891 60.4109 70.1414 59.8586 70.1414H55.9828C55.4305 70.1414 54.9828 70.5891 54.9828 71.1414V79.8328C54.9828 80.8664 54.3055 81.7758 53.3164 82.0758L37.7961 86.7633C37.5734 86.8312 37.3461 86.8641 37.1188 86.8641C36.6219 86.8641 36.132 86.7047 35.7219 86.4C35.1266 85.9594 34.775 85.2609 34.775 84.5203V77.2914C34.775 76.7391 34.3273 76.2914 33.775 76.2914H29.3281C28.0344 76.2914 26.9844 75.2414 26.9844 73.9477V66.8086C26.9844 65.5148 28.0344 64.4648 29.3281 64.4648H33.775C34.3273 64.4648 34.775 64.0171 34.775 63.4648V54.1875C34.775 53.4469 35.1266 52.7484 35.7219 52.3078C36.3172 51.8648 37.0859 51.7313 37.7961 51.9445L53.3164 56.632C54.3055 56.932 54.9828 57.8438 54.9828 58.875V64.4539C54.9828 65.0062 55.4305 65.4539 55.9828 65.4539H59.8586C60.4109 65.4539 60.8586 65.0062 60.8586 64.4539V48.8719C60.8586 47.5758 61.9086 46.5281 63.2023 46.5281H77.1852C78.4789 46.5281 79.5289 47.5758 79.5289 48.8719V55.9648C79.5289 56.5171 79.9766 56.9648 80.5289 56.9648H86.3148C86.8671 56.9648 87.3148 56.5171 87.3148 55.9648V42.2531C87.3148 40.9594 88.3648 39.9094 89.6586 39.9094H100.885C102.179 39.9094 103.229 40.9594 103.229 42.2531V55.9648C103.229 56.5171 103.677 56.9648 104.229 56.9648H105.761C106.313 56.9648 106.761 56.5171 106.761 55.9648V54.7055C106.761 53.4094 107.809 52.3617 109.105 52.3617H121.906C123.2 52.3617 124.25 53.4094 124.25 54.7055V55.0273C124.25 55.5796 124.698 56.0273 125.25 56.0273H129.706C131.002 56.0273 132.05 57.0773 132.05 58.3711V65.5102Z" fill="url(#paint0_linear_11_160)"/>
<path d="M123.547 61.0117C123.547 60.4594 123.995 60.0117 124.547 60.0117H127.066C127.618 60.0117 128.066 60.4594 128.066 61.0117V62.8695C128.066 63.4218 127.618 63.8695 127.066 63.8695H124.547C123.995 63.8695 123.547 63.4218 123.547 62.8695V61.0117Z" fill="url(#paint1_linear_11_160)"/>
<path d="M111.448 58.0493C111.448 57.497 111.896 57.0493 112.448 57.0493H118.563C119.115 57.0493 119.563 57.497 119.563 58.0493V66.329C119.563 66.8813 119.115 67.329 118.563 67.329H112.448C111.896 67.329 111.448 66.8813 111.448 66.329V58.0493Z" fill="url(#paint2_linear_11_160)"/>
<path d="M102.688 61.9492C102.688 61.3969 103.135 60.9492 103.687 60.9492H106.206C106.759 60.9492 107.206 61.3969 107.206 61.9492V62.8695C107.206 63.4218 106.759 63.8695 106.206 63.8695H103.687C103.135 63.8695 102.688 63.4218 102.688 62.8695V61.9492Z" fill="url(#paint3_linear_11_160)"/>
<path d="M92.0023 83.4719C92.0023 82.9196 92.45 82.4719 93.0023 82.4719H97.5414C98.0937 82.4719 98.5414 82.9196 98.5414 83.4719V87.1438C98.5414 87.6961 98.0937 88.1438 97.5414 88.1438H93.0023C92.45 88.1438 92.0023 87.6961 92.0023 87.1438V83.4719Z" fill="url(#paint4_linear_11_160)"/>
<path d="M92.0023 74.0969C92.0023 73.5446 92.45 73.0969 93.0023 73.0969H97.5414C98.0937 73.0969 98.5414 73.5446 98.5414 74.0969V76.7844C98.5414 77.3367 98.0937 77.7844 97.5414 77.7844H93.0023C92.45 77.7844 92.0023 77.3367 92.0023 76.7844V74.0969Z" fill="url(#paint5_linear_11_160)"/>
<path d="M92.0023 64.7219C92.0023 64.1696 92.45 63.7219 93.0023 63.7219H97.5414C98.0937 63.7219 98.5414 64.1696 98.5414 64.7219V67.4094C98.5414 67.9617 98.0937 68.4094 97.5414 68.4094H93.0023C92.45 68.4094 92.0023 67.9617 92.0023 67.4094V64.7219Z" fill="url(#paint6_linear_11_160)"/>
<path d="M92.0023 55.3469C92.0023 54.7946 92.45 54.3469 93.0023 54.3469H97.5414C98.0937 54.3469 98.5414 54.7946 98.5414 55.3469V58.0344C98.5414 58.5867 98.0937 59.0344 97.5414 59.0344H93.0023C92.45 59.0344 92.0023 58.5867 92.0023 58.0344V55.3469Z" fill="url(#paint7_linear_11_160)"/>
<path d="M92.0023 45.5969C92.0023 45.0446 92.45 44.5969 93.0023 44.5969H97.5414C98.0937 44.5969 98.5414 45.0446 98.5414 45.5969V48.6594C98.5414 49.2117 98.0937 49.6594 97.5414 49.6594H93.0023C92.45 49.6594 92.0023 49.2117 92.0023 48.6594V45.5969Z" fill="url(#paint8_linear_11_160)"/>
<path d="M79.0156 61.9492C79.0156 61.3969 79.4633 60.9492 80.0156 60.9492H86.9875C87.5398 60.9492 87.9875 61.3969 87.9875 61.9492V62.8695C87.9875 63.4218 87.5398 63.8695 86.9875 63.8695H80.0156C79.4633 63.8695 79.0156 63.4218 79.0156 62.8695V61.9492Z" fill="url(#paint9_linear_11_160)"/>
<path d="M65.5461 52.2156C65.5461 51.6633 65.9939 51.2156 66.5461 51.2156H73.8415C74.3937 51.2156 74.8415 51.6633 74.8415 52.2156V73.4937C74.8415 74.046 74.3937 74.4937 73.8415 74.4937H66.5461C65.9939 74.4937 65.5461 74.046 65.5461 73.4937V52.2156Z" fill="url(#paint10_linear_11_160)"/>
<path d="M30.9688 69.4492C30.9688 68.8969 31.4165 68.4492 31.9688 68.4492H34.4781C35.0304 68.4492 35.4781 68.8969 35.4781 69.4492V71.307C35.4781 71.8593 35.0304 72.307 34.4781 72.307H31.9688C31.4165 72.307 30.9688 71.8593 30.9688 71.307V69.4492Z" fill="url(#paint11_linear_11_160)"/>
<path d="M49.5845 60.4016C50.0066 60.5291 50.2953 60.918 50.2953 61.3589V77.3488C50.2953 77.7897 50.0066 78.1786 49.5845 78.3061L40.7517 80.9739C40.1097 81.1678 39.4625 80.6872 39.4625 80.0166V58.6911C39.4625 58.0205 40.1097 57.5399 40.7517 57.7338L49.5845 60.4016Z" fill="url(#paint12_linear_11_160)"/>
</g>
<defs>
<filter id="filter0_d_11_160" x="0.6875" y="0.6875" width="158.625" height="158.625" filterUnits="userSpaceOnUse" color-interpolation-filters="sRGB">
<feFlood flood-opacity="0" result="BackgroundImageFix"/>
<feColorMatrix in="SourceAlpha" type="matrix" values="0 0 0 0 0 0 0 0 0 0 0 0 0 0 0 0 0 0 127 0" result="hardAlpha"/>
<feOffset dy="14"/>
<feGaussianBlur stdDeviation="12"/>
<feComposite in2="hardAlpha" operator="out"/>
<feColorMatrix type="matrix" values="0 0 0 0 0.4 0 0 0 0 0.52549 0 0 0 0 0.658824 0 0 0 0.2 0"/>
<feBlend mode="normal" in2="BackgroundImageFix" result="effect1_dropShadow_11_160"/>
<feBlend mode="normal" in="SourceGraphic" in2="effect1_dropShadow_11_160" result="shape"/>
</filter>
<linearGradient id="paint0_linear_11_160" x1="-101.883" y1="-396.527" x2="222.693" y2="-372.032" gradientUnits="userSpaceOnUse">
<stop stop-color="#0587FF"/>
<stop offset="1" stop-color="#83ACD8"/>
</linearGradient>
<linearGradient id="paint1_linear_11_160" x1="118.377" y1="45.811" x2="131.607" y2="46.9805" gradientUnits="userSpaceOnUse">
<stop stop-color="#0587FF"/>
<stop offset="1" stop-color="#83ACD8"/>
</linearGradient>
<linearGradient id="paint2_linear_11_160" x1="102.165" y1="19.2095" x2="126.023" y2="20.6306" gradientUnits="userSpaceOnUse">
<stop stop-color="#0587FF"/>
<stop offset="1" stop-color="#83ACD8"/>
</linearGradient>
<linearGradient id="paint3_linear_11_160" x1="97.5174" y1="50.1995" x2="110.672" y2="51.7355" gradientUnits="userSpaceOnUse">
<stop stop-color="#0587FF"/>
<stop offset="1" stop-color="#83ACD8"/>
</linearGradient>
<linearGradient id="paint4_linear_11_160" x1="84.5207" y1="61.5936" x2="103.671" y2="63.2597" gradientUnits="userSpaceOnUse">
<stop stop-color="#0587FF"/>
<stop offset="1" stop-color="#83ACD8"/>
</linearGradient>
<linearGradient id="paint5_linear_11_160" x1="84.5207" y1="55.8421" x2="103.604" y2="57.8511" gradientUnits="userSpaceOnUse">
<stop stop-color="#0587FF"/>
<stop offset="1" stop-color="#83ACD8"/>
</linearGradient>
<linearGradient id="paint6_linear_11_160" x1="84.5207" y1="46.4671" x2="103.604" y2="48.4761" gradientUnits="userSpaceOnUse">
<stop stop-color="#0587FF"/>
<stop offset="1" stop-color="#83ACD8"/>
</linearGradient>
<linearGradient id="paint7_linear_11_160" x1="84.5207" y1="37.0921" x2="103.604" y2="39.1011" gradientUnits="userSpaceOnUse">
<stop stop-color="#0587FF"/>
<stop offset="1" stop-color="#83ACD8"/>
</linearGradient>
<linearGradient id="paint8_linear_11_160" x1="84.5207" y1="25.9617" x2="103.634" y2="27.8248" gradientUnits="userSpaceOnUse">
<stop stop-color="#0587FF"/>
<stop offset="1" stop-color="#83ACD8"/>
</linearGradient>
<linearGradient id="paint9_linear_11_160" x1="68.7505" y1="50.1995" x2="93.8737" y2="56.0242" gradientUnits="userSpaceOnUse">
<stop stop-color="#0587FF"/>
<stop offset="1" stop-color="#83ACD8"/>
</linearGradient>
<linearGradient id="paint10_linear_11_160" x1="54.911" y1="-34.4719" x2="82.3141" y2="-33.6461" gradientUnits="userSpaceOnUse">
<stop stop-color="#0587FF"/>
<stop offset="1" stop-color="#83ACD8"/>
</linearGradient>
<linearGradient id="paint11_linear_11_160" x1="25.8094" y1="54.2485" x2="39.0126" y2="55.4132" gradientUnits="userSpaceOnUse">
<stop stop-color="#0587FF"/>
<stop offset="1" stop-color="#83ACD8"/>
</linearGradient>
<linearGradient id="paint12_linear_11_160" x1="27.0682" y1="-31.0693" x2="58.996" y2="-29.9826" gradientUnits="userSpaceOnUse">
<stop stop-color="#0587FF"/>
<stop offset="1" stop-color="#83ACD8"/>
</linearGradient>
</defs>
</svg>
